<svg xmlns="http://www.w3.org/2000/svg" xmlns:xlink="http://www.w3.org/1999/xlink" viewBox="0 0 800 500"><defs><style>.cls-1{isolation:isolate;}.cls-2{fill:#262630;}.cls-3{fill:#444351;}.cls-4{fill:#cad5d8;}.cls-5{fill:#919b2c;}.cls-6{fill:#fff;}.cls-7{fill:#3b3c41;opacity:0.1;}.cls-8{fill:#7a7a1e;}.cls-9{fill:#c9c927;}.cls-10,.cls-56{opacity:0.4;}.cls-11{fill:#35343f;}.cls-12,.cls-15{fill:#0864a5;}.cls-13{fill:#ef9875;}.cls-13,.cls-14,.cls-15,.cls-16,.cls-17,.cls-18,.cls-19,.cls-20,.cls-21,.cls-22,.cls-23,.cls-24,.cls-25,.cls-26,.cls-27,.cls-28,.cls-29,.cls-30,.cls-31,.cls-32,.cls-33,.cls-34,.cls-35,.cls-36,.cls-37,.cls-38,.cls-39,.cls-40,.cls-41,.cls-42,.cls-43,.cls-44,.cls-45,.cls-49,.cls-50,.cls-51,.cls-52{fill-rule:evenodd;}.cls-14{fill:#0095cd;}.cls-16{fill:#f59c78;}.cls-17{fill:#94310a;}.cls-18{fill:#fdb499;}.cls-19{fill:#7c150a;}.cls-20{fill:#f7a17b;}.cls-21{fill:#fefefe;}.cls-22{fill:#de8862;}.cls-23{fill:#f6a27b;}.cls-24{fill:#f7a37c;}.cls-25{fill:#344a69;}.cls-26{fill:#8e5038;}.cls-27{fill:#4c4243;}.cls-28{fill:#f6a17b;}.cls-29{fill:#6f533e;}.cls-30{fill:#e68a6a;}.cls-31{fill:#3e5573;}.cls-32{fill:#394c68;}.cls-33{fill:#f7a17a;}.cls-34{fill:#f5a079;}.cls-35{fill:#946c54;}.cls-36{fill:#946b54;}.cls-37{fill:#892d28;}.cls-38{fill:#efdad3;}.cls-39{fill:#c17694;}.cls-40{fill:#fcf6f3;}.cls-41{fill:#3f2714;}.cls-42{fill:#b8846c;}.cls-43{fill:#d99b82;}.cls-44{fill:#3b3a42;}.cls-45,.cls-50{opacity:0.2;mix-blend-mode:screen;}.cls-45{fill:url(#linear-gradient);}.cls-46,.cls-47{fill:#807f87;}.cls-47,.cls-52{opacity:0.3;mix-blend-mode:multiply;}.cls-48{fill:#3a3942;}.cls-49{fill:#4c4a55;}.cls-50{fill:url(#linear-gradient-2);}.cls-51{fill:#e09375;}.cls-52{fill:#6a4e39;}.cls-53{fill:#ba7a6a;}.cls-54{fill:#fcb692;}.cls-55{fill:#f4a67a;}.cls-56{fill:#5b2f19;}.cls-57{fill:#ffb692;}.cls-58{fill:#ed975d;}.cls-59{fill:#ffa412;}.cls-60{fill:#2c3a64;}.cls-61{fill:#35488b;}.cls-62{fill:#ffb27d;}.cls-63{fill:#2b478b;}.cls-64{fill:#ffb93e;}.cls-65{fill:#f99746;}.cls-66{fill:#ed7d2b;}.cls-67{fill:#e8c6a7;}.cls-68{fill:#c69d7b;}.cls-69{fill:#ebf3fa;}.cls-70,.cls-72{fill:#82b378;}.cls-71{fill:#a8d29f;}.cls-72{opacity:0.5;}.cls-73{fill:#e2810e;}.cls-74{fill:#002f67;}.cls-75{fill:#184a89;}.cls-76{fill:#7bd4f4;}.cls-77{fill:#ff432f;}.cls-78{fill:#fec214;}.cls-79{fill:#0791d0;}.cls-80{fill:#00b625;}.cls-81{fill:#2263a7;}.cls-82{fill:#1a4c89;}.cls-83{fill:url(#linear-gradient-3);}</style><linearGradient id="linear-gradient" x1="-10067.88" y1="343.74" x2="-10039.72" y2="343.74" gradientTransform="matrix(-1, 0, 0, 1, -9406.47, 0)" gradientUnits="userSpaceOnUse"><stop offset="0.01" stop-color="#803534"/><stop offset="1" stop-color="#66262f"/></linearGradient><linearGradient id="linear-gradient-2" x1="-10078.28" y1="343.74" x2="-10050.12" y2="343.74" xlink:href="#linear-gradient"/><linearGradient id="linear-gradient-3" x1="399.9" y1="417.09" x2="398.48" y2="275.12" gradientUnits="userSpaceOnUse"><stop offset="0" stop-color="#fff"/><stop offset="0.1" stop-color="#fafdff" stop-opacity="0.98"/><stop offset="0.22" stop-color="#eaf8fe" stop-opacity="0.93"/><stop offset="0.36" stop-color="#d0f0fc" stop-opacity="0.85"/><stop offset="0.51" stop-color="#ade5fa" stop-opacity="0.74"/><stop offset="0.66" stop-color="#7fd6f7" stop-opacity="0.6"/><stop offset="0.82" stop-color="#46c4f3" stop-opacity="0.42"/><stop offset="0.99" stop-color="#05b0ef" stop-opacity="0.22"/><stop offset="1" stop-color="#00aeef" stop-opacity="0.2"/></linearGradient></defs><title>PCS-Banner-1</title><g class="cls-1"><g id="Layer_1" data-name="Layer 1"><path class="cls-2" d="M699.32,261.87a3.72,3.72,0,0,0,3.76,4.19h54.81a4.41,4.41,0,0,0,4.36-4.21s.91-27,3.44-51,6.84-45.12,6.84-45.12a5.32,5.32,0,0,0-2.95-5.45,12.88,12.88,0,0,0-7-1.74c-3.48,0-48,3.61-48,3.61-2.32,1.2-4.49,0-4.74,2.3Z"/><path class="cls-3" d="M694.05,260.18a3.71,3.71,0,0,0,3.76,4.19h54.81a4.4,4.4,0,0,0,4.36-4.21s.91-27,3.44-51,7-46.47,7-46.47a3.32,3.32,0,0,0-3.39-4.13H709.2a4.82,4.82,0,0,0-4.67,4.19Z"/><rect class="cls-2" x="681.79" y="257.21" width="78.84" height="20.66" rx="4.22"/><polygon class="cls-4" points="604.7 192.53 677.64 192.53 677.68 185.16 629.86 183.78 604.48 176.31 604.7 192.53"/><polygon class="cls-5" points="604.74 192.49 616.13 192.07 610.92 178.2 604.48 176.31 604.74 192.49"/><polygon class="cls-6" points="608.15 177.52 608.15 191.29 630.08 191.29 630.08 186.38 608.15 177.52"/><polygon class="cls-7" points="630.08 188.5 608.15 181.22 608.15 177.52 630.08 186.38 630.08 188.5"/><path class="cls-8" d="M678.89,192.76H628a.84.84,0,1,1,0-1.68h50.91a.84.84,0,0,1,0,1.68Z"/><polygon class="cls-5" points="604.38 175.93 651.28 175.93 678.89 184.64 678.79 185.16 628.04 185.16 604.38 175.93"/><path class="cls-8" d="M678.1,186H628a.85.85,0,1,1,0-1.69H678.1a.85.85,0,1,1,0,1.69Z"/><path class="cls-9" d="M628.32,192.75H604.48a.83.83,0,0,1-.84-.84V176.73A.86.86,0,0,1,604,176a.85.85,0,0,1,.77-.1l23.56,8.43a.84.84,0,1,1-.57,1.59l-22.43-8v13.14h23a.84.84,0,1,1,0,1.68Z"/><g class="cls-10"><path class="cls-11" d="M696.93,238l-.76-1.17a6.27,6.27,0,0,1-1.88-2.42c0-.33.55-.27,1.14.14l.5.5a16.48,16.48,0,0,1,3.29,5.22c.78,1.77,1.09,3.7,1.79,5.49a29.58,29.58,0,0,1,1.85,11.92c0,.5.1.74.62.73,1.09,0,2.18.15,3.26.15,3.77,0,7.53.23,11.31.2a30.82,30.82,0,0,0,15.35-3.85,13.42,13.42,0,0,0,4.08-2.89,11.26,11.26,0,0,0,2.35-6.93,1.28,1.28,0,0,0-1-1.43,58.17,58.17,0,0,1-6.65-3,108.28,108.28,0,0,0-14.8-6.49,32.24,32.24,0,0,0-8.18-1.67c-1.3-.08-2.62-.07-3.92-.19a43.88,43.88,0,0,0-6.28,0l-1.52.09c-1.66.14-2.85-1.35-2.64-3.33s1.18-3.59,2.16-3.61h1.48c.35-.38.85-.55,1.11-.39l.06.25a2.78,2.78,0,0,0,1.77,1.87,44.74,44.74,0,0,0,6,2.31c.92.27,1,.21,1.29-.72a35.68,35.68,0,0,1,1.55-4.86c.41-.93.36-1-.65-1.19a68.49,68.49,0,0,1-7.37-1.57l-.89-.24c0-.58,0-2-.09-3.27a17,17,0,0,1,.38-4.51l.19.09a104.81,104.81,0,0,0,15,5.06,38.09,38.09,0,0,0,12,1.81,7.32,7.32,0,0,0,6.1-3.35c1.45-2.22-.19-5.13.66-7.73.67-2.08.31-3.57,1.12-5.62.94-2.35-3.12-4.36-2.25-6.74,1.44-3.9-4.81-10-3.09-13.78,1.49-3.27,5-8.58,5.34-12.08.29-2.88-2.54-2.2-3.09-5.06-.77-4.07,4.05-3.48,1.41-6.75l-.07-.08a16.6,16.6,0,0,1,4.48-.34h9.19a5.64,5.64,0,0,1,5.21,4.1s.07.31.3,2.61c.26,2.52-.49,4.93-.75,7.4-.21,2-.78,4-.85,6.05-.09,2.67-.27,5.34-.41,8-.17,3.06-.36,6.12-.65,9.17-.3,3.25-.58,6.49-.86,9.74a21.91,21.91,0,0,0-.08,6.16A72.35,72.35,0,0,1,752,223.07c.08,2.23.14,4.47.37,6.69.44,4.24,0,8.48,0,12.72a9.83,9.83,0,0,1-.09,1.08c-.25,1.93,1.95,20.89-1.8,23.34-5.22,3.41-20.8-3.89-26.77-3.31-5.37.52-10.78,0-16.17-.15-2.48-.09-5-.21-7.44-.09l-2,.1c-2.18.09-4.7.16-5.61.15l-.09-.53-.1-.58a50.68,50.68,0,0,0,5.11-2.08,5.24,5.24,0,0,0,2.54-4.19,32.33,32.33,0,0,0-.14-9.67A22.21,22.21,0,0,0,696.93,238Z"/></g><path class="cls-12" d="M658.33,192.42s15.45,24.17,22.2,25.58,25,.56,25,.56l-3.37-33.73-10.4,7.59-8.15,6.18-18-3.37Z"/><g id="AaOQWA"><path class="cls-13" d="M644.77,351.21c4.4-.06,8.81-.06,13.2-.21l9.43-.34a12.51,12.51,0,0,0,3.05-.27,31.57,31.57,0,0,0,4.06-2.91c2.8-2.53,5.14-5.39,5.42-9.32A36.38,36.38,0,0,1,681,331.5a6.64,6.64,0,0,0-.58-3.76c-.24-.75-.51-.64-.81-1.36a8.43,8.43,0,0,1-.49-5c.24-1.2.4-2.41.62-3.62s.16,1.05.31-.11a89.11,89.11,0,0,1,2-9.59,31.88,31.88,0,0,1,1.32-3.53,58.82,58.82,0,0,0,3.16-14.36c.48-5,.57-10.08.65-15.14a42,42,0,0,0-1.34-10.66c-.32-1.33.07-2.58.09-3.87a9.14,9.14,0,0,1,.84,2.15c.14.41.27.81.77.9a4.65,4.65,0,0,0,4.15-3.07,38,38,0,0,0,1.48-11,13.48,13.48,0,0,0-3.34-8.74,8,8,0,0,0-7.7-2.51c-2.15.34-4.28.79-6.44,1.1a4.49,4.49,0,0,0-1.27.41,4.8,4.8,0,0,1-.6.3,6.84,6.84,0,0,0-3.84,4.5c-.57,1.69-1.16,3.38-1.73,5.08a10.77,10.77,0,0,0-.67,3.44c0,3-.39,5.91-.18,8.87.28,4.15.22,8.31.5,12.46.18,2.56.41,5.12.75,7.66a25.49,25.49,0,0,1,.21,3.26c0,4.42.55,8.79,1,13.18.2,2,.3,4.12.42,6.18s.25,4.18.43,6.26c0,.42.05.84.05,1.26,0,4.63-.08,5.9,0,10.54.06,2.77-.85,4.35-2,6.75a29,29,0,0,1-4.83,6.69,16.15,16.15,0,0,1-3.87,3.19c-3,1.67-5.75,3.66-8.79,5.21a28.85,28.85,0,0,1-6.41,2.42c-1.23.3-1.4.6-1,1.77A7.56,7.56,0,0,0,644.77,351.21Z"/><path class="cls-14" d="M691.39,211a35.52,35.52,0,0,0,4.88,2.17,44.41,44.41,0,0,0,6.78,2.67c4.05,1.34,8.14,2.61,12.31,3.56a39.48,39.48,0,0,0,6.38,1,11.65,11.65,0,0,0,5-.65,7.85,7.85,0,0,0,3.5-3c.75-1.07,1.36-2.25,2.14-3.31a4.84,4.84,0,0,0,.68-1.34,59.66,59.66,0,0,1,2.94-6.94,27.91,27.91,0,0,0,1.46-4,186.78,186.78,0,0,1,6.6-17.93,27,27,0,0,0,1.68-7.07A31,31,0,0,0,743,158.29a16.08,16.08,0,0,0-3.3-4.72,3,3,0,0,0-1.66-.89,8.52,8.52,0,0,0-6.11,1.16,31.89,31.89,0,0,1-4.48,2.45c-1.2,1-2.68,1.05-4.08,1.4-.51.17-1,0-1.55.19a6.37,6.37,0,0,0-1.29,2.13,40.44,40.44,0,0,1-2.09,4.29c-1.27,2.07-2,4.4-3.3,6.46a73.43,73.43,0,0,1-5.47,8.08,1.11,1.11,0,0,1-.75.36c-.09,1.36-.88,2.51-1.2,3.8a21.25,21.25,0,0,0-.62,8.21,2.22,2.22,0,0,0,1.53,1.9,10.76,10.76,0,0,0,4,.84c.87,0,1.73,0,2.6,0a5.55,5.55,0,0,0,5.4-3.76,34.13,34.13,0,0,0,1.48-4.45c.72-3.07,2.2-5.86,3.21-8.82a34.92,34.92,0,0,1,2.15-5.18,2.18,2.18,0,0,0,0-1.93,4.62,4.62,0,0,1-.58-2.44,3.51,3.51,0,0,1,.81,1.29c.17.29.22.71.6.75s.6-.36.81-.64a3.76,3.76,0,0,0,.32-.55c-1,2.29-1.26,4.79-2.06,7.14-1.46,4.33-2.17,8.84-3.34,13.24-.8,3-1.8,5.94-2.64,8.92a6.2,6.2,0,0,0,1.77,6.63,9.16,9.16,0,0,1,1.93,2.93c.28.62.55,1.25.79,1.79a26.17,26.17,0,0,0-4.13-4.58c-.18-.17-.42-.36-.67-.17s-.1.46,0,.69.14.29.2.46c-1.06-2.62-3.38-3.47-5.79-4.2a56.42,56.42,0,0,0-9.2-1.78c-4-.5-7.93-1.33-11.86-2.21-.46-.11-1-.35-1.35.26a4.08,4.08,0,0,0,0,1.74,11.5,11.5,0,0,1,.08,3.26,21.3,21.3,0,0,1-.55,3.71c-.15,1.23-.45,2.44-.7,3.65A4.33,4.33,0,0,1,691.39,211Z"/><path class="cls-15" d="M727.44,156.49a19.46,19.46,0,0,0,4.35-2.3,8.45,8.45,0,0,1,6.46-1.23,4,4,0,0,1,2.23,1.79,24.67,24.67,0,0,1,4.75,11.18,30,30,0,0,1,.45,8.66,32,32,0,0,1-2.57,10.21c-1.73,3.77-3,7.74-4.42,11.63-.88,2.39-1.42,4.87-2.36,7.22-.81,2-2,4-2.64,6a29.78,29.78,0,0,1-3.79,7,7.32,7.32,0,0,1-6.1,3.35,38.09,38.09,0,0,1-12-1.81c-5.09-1.42-15.38-5.21-15.57-5.09-.18,2.23.23,4.45.13,6.68-.11,1-.06,1,.83,1.28a68.49,68.49,0,0,0,7.37,1.57c1,.16,1.06.26.65,1.19a35.68,35.68,0,0,0-1.55,4.86c-.27.93-.37,1-1.29.72a44.74,44.74,0,0,1-6-2.31,2.78,2.78,0,0,1-1.77-1.87c-.06-.25-.15-.56-.53-.54-.2.6-.64.68-1.24.68-5.69.05-11.37,4.49-17,5a40.61,40.61,0,0,0-8.63,2c-2.34.74-4.68,1.48-7,2.25a4.75,4.75,0,0,0-2.86,2c.21.37.55.2.82.14,3.76-.84,7.47-.18,11.17.45,1.32.23,2.61.61,3.92.88a4,4,0,0,0,1.55.1c.16-.12.3-.25.17-.48a16.19,16.19,0,0,0-3.22-.9,64.25,64.25,0,0,0-10.26-2,80.76,80.76,0,0,1,8.8-2.47A64.62,64.62,0,0,1,679.1,231a17.52,17.52,0,0,1,9.34,1.36l.46.22c.1.05.22,0,.32,0-1.89,0-3.74.41-5.62.59q-3.5.34-7,.6a8.23,8.23,0,0,0-1.32.19c-.19,0-.44.07-.45.3s.23.3.41.37a20.59,20.59,0,0,0,3,.9,40.83,40.83,0,0,0,10.19,1.39c1.87,0,3.72-.29,5.59-.4,2.1-.12,4.19-4.38,6.28-4.2,1.3.12,2.62.11,3.93.19a32.17,32.17,0,0,1,8.17,1.67,108.28,108.28,0,0,1,14.8,6.49,58.17,58.17,0,0,0,6.65,3,1.28,1.28,0,0,1,1,1.43,11.26,11.26,0,0,1-2.35,6.93,13.42,13.42,0,0,1-4.08,2.89A30.82,30.82,0,0,1,713,258.74c-3.77,0-7.54-.21-11.31-.2-1.08,0-2.17,4-3.26,4.06-.52,0-.64-.22-.62-.72A29.55,29.55,0,0,0,696,250c-.7-1.79-1-3.72-1.79-5.5a16.55,16.55,0,0,0-3.29-5.21,7.71,7.71,0,0,0-7-2.22c-1.24.19-2.48.41-3.72.65a4.32,4.32,0,0,1-1.52.1,6.18,6.18,0,0,0-1.14.07c-.38.25-1-.13-1.23.52a.64.64,0,0,0,.39.2c.63,0,1.26,0,1.89,0A33.77,33.77,0,0,0,683,238a11.62,11.62,0,0,1,3.58.07,8.44,8.44,0,0,1,5.26,4.12,22.21,22.21,0,0,1,3,8.57,32.33,32.33,0,0,1,.14,9.67c-.44,3.22-2.27,5.61-6.37,5.93-.33.15-1.28.34-1.18.91s1.63.51,1.74.56c2,.08,4-.17,5.93-.27,2.48-.13,5-4.22,7.44-4.13,5.39.19,10.8.67,16.17.15,6-.58,11.89-1.62,17.1-5a20,20,0,0,0,7.91-9.89,1.26,1.26,0,0,1,.63-.81,5.29,5.29,0,0,0,2.93-4.3,9.83,9.83,0,0,0,.09-1.08c0-4.24.39-8.48-.05-12.72-.23-2.22-.29-4.46-.37-6.69a72.35,72.35,0,0,0-1.42-11.27,21.91,21.91,0,0,1,.08-6.16c.28-3.25.56-6.49.86-9.74.29-3.05.48-6.11.65-9.17.14-2.68.33-5.35.41-8,.07-2.06.65-4,.85-6.05.26-2.47,1-4.88.75-7.4a27.29,27.29,0,0,0-3.74-12.1,10.89,10.89,0,0,0-4.09-2.82,8.9,8.9,0,0,0-7.95.73,16.39,16.39,0,0,0-5.46,4.47C727.66,155.82,727.36,156.07,727.44,156.49Z"/><path class="cls-16" d="M673.34,238a46.84,46.84,0,0,0-12.67-1.8c-1.15,0-2.22.46-3.36.51a7.51,7.51,0,0,1-1.92,1.16,6.44,6.44,0,0,0-2.84,2.38,15.12,15.12,0,0,0-2.61,8.76c0,2.35.07,4.7,0,7a65.12,65.12,0,0,0,.92,11.33c.75,5.32,1.83,10.59,2.5,15.93.31,2.46,1,4.85,1.42,7.31.6,3.65,1.14,7.32,1.57,11,.34,2.85,1,5.65,1.38,8.49.48,3.42.84,3.49,1.33,6.91.37,2.54.35,5.11.58,7.67a9,9,0,0,1-.83,4.66,16.37,16.37,0,0,0-.89,2.94,10.74,10.74,0,0,1-2.87,5c-2.77,3.21-6.38,5.2-10.2,6.85-2.31,1-4.6,2-6.91,3-.62.26-.9.63-.71,1.3a2.7,2.7,0,0,1,.06.41c.48,2.36.56,2.43,3,2.46a35.87,35.87,0,0,0,4.52-.13,20.86,20.86,0,0,0-.9-2.95c-.17-.54-.1-.81.52-.94a35.72,35.72,0,0,0,11.44-5.16c1.63-1,3.34-1.93,4.91-3a17.89,17.89,0,0,0,3.92-3.57c.91-1.15,1.83-2.29,2.7-3.47a23.73,23.73,0,0,0,2.59-4.84,10.12,10.12,0,0,0,1-4.95c-.06-4.14,0-4.9,0-9,0-3.56-.4-7.1-.64-10.65-.12-1.75-.18-3.5-.36-5.25s-.34-3.48-.57-5.21a11.35,11.35,0,0,1-.1-1.16c-.12-2.92-.1-5.85-.38-8.76-.3-3.21-.69-6.4-.84-9.63,0-.91-.12-1.83-.12-2.75,0-3.84-.58-7.69-.3-11.52.2-2.66-.24-5.37.62-8,.77-2.35,1.49-4.72,2.45-7a5.85,5.85,0,0,1,3.06-3,7.45,7.45,0,0,0,.71-.43c-.12-.49-.5-.33-.79-.29-1.25.15-2.5.19-3.74.35a1.83,1.83,0,0,1-.33,0c-.25,0-.6,0-.65-.26s.31-.31.52-.41a6.76,6.76,0,0,1,2.31-.62A1.93,1.93,0,0,0,673.34,238Z"/><path class="cls-17" d="M721.79,158c.55-.07,1.13.14,1.65-.15.11-.38.48-.45.75-.61a53.65,53.65,0,0,0,5.67-3.89,30.19,30.19,0,0,0,2.17-2.21A24.83,24.83,0,0,1,735.8,148a1.64,1.64,0,0,0,.79-1.3c.38-3.71.67-7.45,1.15-11.15.93-7.1,2.24-14.13,3.86-21.1a39.26,39.26,0,0,0,1.1-4.3c.12-1.05.15-2.12.21-3.17.2-3.4.33-6.81.19-10.21a23.88,23.88,0,0,0-3.28-10.37,16.77,16.77,0,0,0-7.22-7.12,8.31,8.31,0,0,0-2.5-.94l0,0c0-.06,0-.09.09-.11-2.19-.29-4.28-1.1-6.47-1.37a15.16,15.16,0,0,0-4.71.59,41.52,41.52,0,0,0-6.19,1.74c-.75.26-1.32.9-2,1.12a9.72,9.72,0,0,0-2.5,1.3c-3.39,2.37-5.7,5.45-6.22,9.67a9.77,9.77,0,0,0,.23,3.41c.51,0,.49-.42.56-.76a5.09,5.09,0,0,1,1-2.5c.33-.21-.55-.09-.09-.33a4.65,4.65,0,0,1,1-.41,11.79,11.79,0,0,0,3.88-1.9c2.3-1.74,5-2.89,7.37-4.44a9.39,9.39,0,0,0,1.4-.92,8.21,8.21,0,0,0-2.08,2.86c.62.75.83,1.79,1.65,2.42a5.12,5.12,0,0,1,1.4,1.83,11.57,11.57,0,0,0,5.12,4.65,49.36,49.36,0,0,0,9.41,3.45l.41.11c.2.07.47.1.43.41a.51.51,0,0,1-.47.42,6.52,6.52,0,0,1-2.16,0c-.28,0-.55-.11-.83-.14s-.36-.06-.46.1.07.37.21.49c.83.71,1.66,1.41,2.52,2.08a.69.69,0,0,1,.29.5.64.64,0,0,0,.47.14,2.79,2.79,0,0,1,2.75,1.28,1.14,1.14,0,0,0,.31.27,4.77,4.77,0,0,1,1.74,3.56,11.8,11.8,0,0,1-1,5.7c-2,4.9-4.15,9.75-6.59,14.46-.26.51-.47,1.09-1.18,1.15-.34.18-.27.52-.32.81a22.2,22.2,0,0,1-2.21,7.48,25.18,25.18,0,0,1-4.16,5.51c-.3.4-.83.63-.86,1.21a.43.43,0,0,0,.39.29,2.57,2.57,0,0,0,1.07-.36,13.05,13.05,0,0,0,3.58-2.42c-1.35,2.25-1.89,4.9-3.09,7.28-.48,1.14-1.11,2.22-1.66,3.34a2.13,2.13,0,0,0-.31.85.29.29,0,0,0,.23.26c.77-.41,1.1-1.23,1.68-1.82L725,150a23.44,23.44,0,0,1-1.38,3.68,23.82,23.82,0,0,1-1.79,3.48C721.68,157.38,721.27,157.69,721.79,158Z"/><path class="cls-18" d="M736.44,104.21a3.24,3.24,0,0,0-3.66-1.73,1.73,1.73,0,0,0-1.2.21,7.3,7.3,0,0,1-3.52.55,1.23,1.23,0,0,1-1.16-1,29.49,29.49,0,0,0-2-5.21,1.82,1.82,0,0,0-.83-.9,14,14,0,0,1-5.19-5A16.14,16.14,0,0,0,717,88.61c-.38-.63-.77-1.26-1.15-1.9-.12-.21-.19-.47-.51-.45a.79.79,0,0,0-.71.16c-2.69,1.92-5.84,2.84-8.86,4a5.48,5.48,0,0,0-2,.82,1.44,1.44,0,0,0-.86.88,16.93,16.93,0,0,0-.68,2.47c-.25,1.6-.53,3-.63,4.52a.24.24,0,0,0,.22,0c.29-.11.47-.71.87-.32s1.08.65,1,1.4c0,.16-.38.24-.38.41.24,1,1.12,1.87,1.38,2.84a2,2,0,0,1-.5,2.12,1.37,1.37,0,0,0-.2.13,3.35,3.35,0,0,0-.55,1,3.38,3.38,0,0,1-.22.52,18.14,18.14,0,0,1-1.08,1.66c.21-.28-.89,1.1-1.49,2a2.4,2.4,0,0,0-.11,2.67c1.46,1,3,1,4.74,1a2.28,2.28,0,0,0,2.44-1.61,4.44,4.44,0,0,1-1,2.55,1.53,1.53,0,0,1-1.11.66,6.17,6.17,0,0,1-3.16-.29,12.85,12.85,0,0,1-.13,2.63.77.77,0,0,0,.26.74,32,32,0,0,0,5,.57,19.11,19.11,0,0,0,4.13-.57c.42-.1.86-.19,1-.72.38.38.38.82.58,1.31a1.6,1.6,0,0,0-1.79-.15,15.39,15.39,0,0,1-5.42.82,25,25,0,0,1-3-.3c-.22.61-.75,1.14-.48,1.87.15.54.53.66,1,.75a20.17,20.17,0,0,0,6,.07,19.89,19.89,0,0,0-2.44,1.68c-.36.27-.68.08-1-.09a4,4,0,0,0-2.06-.61c-.33,0-.68,0-.86.37.24,1.9-.12,3.89.78,5.7a3.07,3.07,0,0,0,.55.9c1.15,1,2.35.8,3.79.86,1.81.07,3.61.1,5.42,0a16,16,0,0,0,11.34-5.37,9,9,0,0,0,1.85-3.63,32.16,32.16,0,0,0,1.64-9.87,2.12,2.12,0,0,1,.07-.67,7.58,7.58,0,0,0,.28-3.38,3.45,3.45,0,0,1,.33-1.86c.12.29.13.72.47.7s.32-.46.36-.74a1.79,1.79,0,0,1,.39-1,6.45,6.45,0,0,1,3.68-2.3,1.14,1.14,0,0,1,1.18.47c.27.35.49.75.76,1.11s.57.4.66-.17A.85.85,0,0,0,736.44,104.21Z"/><path class="cls-15" d="M693.23,197.25a4.5,4.5,0,0,1,2.27.29c3.85.85,7.72,1.59,11.63,2.08a40.07,40.07,0,0,1,11.45,2.84c.94.41,1.37,1.28,2,2a17.42,17.42,0,0,0,1.13,1.37l-.57-1.59a28.63,28.63,0,0,1,5.22,5.33,15.06,15.06,0,0,0-3.29-5.91,6.88,6.88,0,0,1-1.62-2.61,5.49,5.49,0,0,1,.12-2.87,61.66,61.66,0,0,1,1.89-6.49c1.06-3.57,1.85-7.21,2.69-10.84.59-2.54,1.47-5,2.12-7.55a44,44,0,0,1,1.76-5.9,5.34,5.34,0,0,0-1.21,1.52c-.12.15-.2.38-.41.38s-.22-.26-.3-.43c-.24-.5-.49-1-.74-1.5-.08-.16-.12-.43-.39-.34a.52.52,0,0,0-.33.44,2,2,0,0,0,.26,1.3,4.2,4.2,0,0,1-.2,4.14c-1.11,2.3-1.77,4.81-2.83,7.14-1.43,3.13-2.09,6.51-3.3,9.72a5.48,5.48,0,0,1-5.61,4,16,16,0,0,1-5.55-.56c-1.77-.63-2.16-1-2.22-2.93a20.09,20.09,0,0,1,1.76-9.76c.23-.49-.1-.94.09-1.39a1.46,1.46,0,0,0,.24-1.11c-.11-3.46.14-6.91.19-10.37,0-1.36.16-2.73.29-4.08.24-2,.54-4,.88-6-.11-.47,0-1.08-.69-1.18-1.3,4.38-2.84,8.7-3.05,13.34-.14,3-.24,6-.35,9-.06,1.78-.08,3.56-.25,5.35a27.1,27.1,0,0,0,.49,6.66c.17,1.12-.1,1.48-1.23,1.35a19.47,19.47,0,0,1-4.36-.79A3.06,3.06,0,0,1,699,189a18.68,18.68,0,0,1-.08-6.24,85.28,85.28,0,0,1,2.42-11.64c.56-2.34,1.16-4.67,1.57-7,.06-.36.32-.9-.14-1s-.65.42-.82.78a41.91,41.91,0,0,0-2,5.77c-.09.59-.34,1.15-.37,1.52.07-.44.27-1.08.44-1.72.86-3.26,1.64-6.54,2.57-9.78a6.63,6.63,0,0,1,1.13-2.49.55.55,0,0,0,.14-.21c.36-1.55,1.56-2.38,2.72-3.24a1,1,0,0,0,.37-.45,8.56,8.56,0,0,0,0-2.9,9.39,9.39,0,0,0-5,5.28c-1.25,3.4-2.87,6.67-3.81,10.17-.81,3-1.74,5.93-2.34,9a9,9,0,0,1-1.29,3c-1.84,3-3.85,5.81-5.91,8.62-1.52,2.06-3.12,4.07-4.84,6-.22.24-.43.54-.83.44-.09.29.11.47.28.65a11.05,11.05,0,0,0,5.34,3.27,1.68,1.68,0,0,0,.74-.08C690.67,196.67,691.94,197,693.23,197.25Z"/><path class="cls-19" d="M730.15,78.16l-.6,0A17.78,17.78,0,0,1,737,82.76a23.6,23.6,0,0,1,4.44,7.5,22.86,22.86,0,0,1,1.5,8.82c0,2.64-.18,5.29-.21,7.93a32.06,32.06,0,0,1-1.32,7.52c-1.27,5.06-2.24,10.18-3,15.34-.54,3.48-1,7-1.36,10.46-.22,2.21-.36,4.43-.63,6.63a.84.84,0,0,1-.44.65,36,36,0,0,0-5.81,5.23,23.15,23.15,0,0,1-4.46,3.22c-.8.5-2,1.42-2.79,1.94-.06,0,3.92-.53,4.59-1.51a16.2,16.2,0,0,1,7.63-6c3.31-1.28,6.26-.42,9,1.66a5.51,5.51,0,0,0,1.33,1c-1.45-2,4.2-6.94,2.31-28.9a87,87,0,0,1-.49-20.71,34.08,34.08,0,0,0-.27-5.25,22.28,22.28,0,0,0-2.39-9.49A20.7,20.7,0,0,0,730.15,78.16Z"/><path class="cls-20" d="M688,267c-.08-.44,1.26-.26,1.79-.54-.68-.67-1.78-1.4-1.76-2.24,0-.39,0-.72-.44-.83s-.44-.24-.52-.54c-.2-.76-.43-1.5-.67-2.24-.09-.28-.13-.72-.52-.63s-.27.49-.31.79a14.91,14.91,0,0,0,.54,5.83c.45,1.7.44,3.47.91,5.16a5.8,5.8,0,0,1-.1,1.48c0,3,.08,6,0,9-.09,2.66-.37,5.31-.61,8a57.88,57.88,0,0,1-1.22,8,69.18,69.18,0,0,1-2.93,9.05,51.66,51.66,0,0,0-1.58,6.29c-.5,2-.84.73-1,2.79s-.71,4.34-.89,6.54a10.77,10.77,0,0,0,1,4.44c.34,1,.69,1.15,1,2.16.49,1.62-.07,3.14-.57,4.64a4.38,4.38,0,0,0-.26,1.63,13.2,13.2,0,0,1-1,5.79,17,17,0,0,1-4.56,5.9,19.35,19.35,0,0,1-4.38,3l.53.09c2.06-.13,4.15-.11,6.18-.44a22.8,22.8,0,0,0,4.6-1,6.26,6.26,0,0,0,2.45-1.84,3.6,3.6,0,0,0,.61-2.47,16.88,16.88,0,0,0-.81-6.18,5,5,0,0,1-.46-1.94,31.93,31.93,0,0,0-.68-7.23,39,39,0,0,1-.2-8c.13-5.79,1.57-8,2.88-13.57,1.08-4.63,2.18-9.27,2.93-14,.4-2.5.87-5,1.14-7.51.44-4.1.91-8.2.36-12.35a35.73,35.73,0,0,0-.8-5.54C688.48,267.73,688,267.31,688,267Z"/><path class="cls-18" d="M689.17,196.28c-.15,0-.13.3-.38.22a11.28,11.28,0,0,1-5.79-3.79,25.62,25.62,0,0,0-10.09-4.61c-2.41-.41-4.84-.71-7.22-1.26-.6-.13-1.18-.32-1.77-.51a3.2,3.2,0,0,0-1.06-.15c-1.5,0-2,.9-1.17,2.2a10.72,10.72,0,0,0,5.95,2.75,5.37,5.37,0,0,1,1.29.35c.26.11.53.24.45.6s-.35.4-.65.42a3.51,3.51,0,0,1-1.16-.13,3.57,3.57,0,0,1-2.14.14c-4.87-.58-9.76-.18-14.64-.3-.53,0-1.12.11-1.26.63-.19.71.46,1.11.9,1.56A12.61,12.61,0,0,0,656,196c1.8.19,3.59.51,5.41.56,2.44.07,4.61,1.14,6.74,2.17a21,21,0,0,0,10.58,2,15.3,15.3,0,0,0,2.33-.29,4.09,4.09,0,0,1,2.83.44c.62.33,1.25.63,1.88.93a1.85,1.85,0,0,0,2.17-.26,3.57,3.57,0,0,0,1.48-3,3.33,3.33,0,0,1,.09-1A1.24,1.24,0,0,0,689.17,196.28Z"/><path class="cls-13" d="M736.69,105c0,.11,0,.22-.05.47l-1-1.47a1.3,1.3,0,0,0-1.51-.58,7.42,7.42,0,0,0-3.37,1.91,2.47,2.47,0,0,0-.8,2.37c-.56-.46-.18-1-.44-1.41a4.31,4.31,0,0,0-.68,3.36,1.86,1.86,0,0,1,0,1.07,12.78,12.78,0,0,0-.44,3.54,30.16,30.16,0,0,1-1.3,7.36c-.24.83-.49,1.65-.81,2.46-1,2.48-3,4-5.15,5.29-2.41,1.46-5,1.75-7.85,1.88-1.76.07-3.5.26-5.25.25-1.13,0-2.45.15-3.36-.71a1.75,1.75,0,0,0-.4-.27c.31.77,1.15,1,1.85,1.16a11.3,11.3,0,0,0,3,.36,4.17,4.17,0,0,0,2.37.18c1.5-.07,2,.2,2.58,1.59a15.66,15.66,0,0,1,.91,4.49,34.84,34.84,0,0,1-.06,9,9.31,9.31,0,0,1-.71,2.32c-.13.3-.31.6-.15.95.41.24.61-.11.84-.31a7,7,0,0,0,2.15-4.06,29.79,29.79,0,0,0,.51-7c0-.47-.25-1.1.57-1.27,1.28-.27,1.54-.21,2,.72.55,1.13,1.15,2.23,1.77,3.33a2.85,2.85,0,0,0,.81,1.14,20.67,20.67,0,0,0,6.35-12.2c.08-.6.21-1.2.32-1.8a5.52,5.52,0,0,0,.55-2.65c.33-2.68.62-5.36.73-8a9.06,9.06,0,0,1,.13-.91,1.39,1.39,0,0,1,1.09-1.39.82.82,0,0,0,.54-.37c0-.51-.47-.37-.75-.38a1.77,1.77,0,0,1-1.37-.67,1.24,1.24,0,0,1,.4-2,13.94,13.94,0,0,0,3-1.88,1.21,1.21,0,0,1,1.88.26c.18.22.26.59.68.48a.42.42,0,0,0,.16-.19,12.6,12.6,0,0,0,.52-6C737,105.2,736.94,105,736.69,105Z"/><path class="cls-19" d="M714.18,150.62a15.52,15.52,0,0,0,1.24-4.73,40.35,40.35,0,0,0-.69-11.13,7.19,7.19,0,0,0-.57-1.57c-.48-.93-1.32-1.07-2.37-1a8.84,8.84,0,0,0-1.11.1s1.92,5.6,1.06,9.91-4.52,7.35-4.76,8.1c-.49,1.48-.09,2-.17,3a3.61,3.61,0,0,0-.15,2.13c0,.43.31.49.62.19a4.5,4.5,0,0,0,.88-1.31,10.26,10.26,0,0,1,1.07-1.83,24.45,24.45,0,0,0,.39,2.86c.06.35.07.73.42,1,.15.4.31.8.47,1.2a.79.79,0,0,0,.06.48c.06.16.15.32.33.34s.33-.18.39-.35c.23-.65.47-1.29.71-1.94.65-1.49,1.37-2.95,2-4.47A1.38,1.38,0,0,0,714.18,150.62Z"/><path class="cls-20" d="M689.37,197.42c-.29.34-.16.75-.14,1.13a3.55,3.55,0,0,1-1.9,3.12,1.24,1.24,0,0,1-1.21,0,7.79,7.79,0,0,1-1.19-.6c-1.66-1.19-3.47-1-5.35-.76a18.7,18.7,0,0,1-10-1.25,41.33,41.33,0,0,0-6.6-2.56,33.9,33.9,0,0,0-3.89-.37c-2.94-.4-5.92-.56-8.7-1.71a2.58,2.58,0,0,0,1.51,1c2.28.75,4.55,1.52,6.83,2.24a5.5,5.5,0,0,1,2.34,1.55,5.56,5.56,0,0,0,1.17,1.06c1.48.83,2.59,2.2,4.19,2.85a5.88,5.88,0,0,0,2.2.4c3.85,0,7.69-.35,11.54-.16a18,18,0,0,1,6.51,2c.16.56.61.57,1.07.54a1,1,0,0,0,.87-.77,23.79,23.79,0,0,0,.73-3.43c.15-1,.24-1.93.34-2.9A1.47,1.47,0,0,0,689.37,197.42Z"/><path class="cls-14" d="M694.09,224.76c.08.11.21.21.23.33a3.19,3.19,0,0,0,2.28,2.43,50.3,50.3,0,0,0,6.17,2.31c.7.2.87-.05,1-.62a49.46,49.46,0,0,1,1.49-4.86c.7-1.7.66-1.7-1.23-1.95-2.42-.33-4.78-1-7.16-1.54-.59-.13-.43-.62-.51-1-.09,1.25-1,2.14-1.48,3.19C694.64,223.61,694.37,224.19,694.09,224.76Z"/><path class="cls-21" d="M689.37,197.42a23.07,23.07,0,0,1-1,7.7c-.16.68-.83.72-1.67.17a3.93,3.93,0,0,0-.09,2.35c0,.38.41.47.73.59a15.82,15.82,0,0,1,3.4,1.27c.72.18,1.12-.05,1.33-.88a28.66,28.66,0,0,0,.64-2.89,29.92,29.92,0,0,0,.59-6,1.48,1.48,0,0,0-.06-.66l0-1.85c-.62-.58-1.44-.48-2.18-.65s-1.25-.21-1.88-.32C689.24,196.66,689.3,197,689.37,197.42Z"/><path class="cls-20" d="M702.48,115.91c.13.49.41.63.93.52.69-.16,1.39.15,2.13,0a1.86,1.86,0,0,0,1.39-.77c.63-.94,1.35-1.87.82-3.2-.21.7-.42,1.32-1.15,1.61a3.67,3.67,0,0,1-2,.28c-1.27-.21-2.62-.16-3.74-1-.1-.07-.3-.19-.46,0a1.91,1.91,0,0,0,1,1.12A2,2,0,0,1,702.48,115.91Z"/><path class="cls-22" d="M703.58,120.6a18.35,18.35,0,0,0,7.66-.53c1.35-.45,1.37-.39,2.42.46a6.89,6.89,0,0,0-.66-2.16c-.1-.16-.2-.38-.42-.33s-.24.29-.16.48-.07.35-.32.42a17,17,0,0,1-7.66.42c-.58-.11-1.41-.31-2.12-.52C702.39,119.22,702.87,120.47,703.58,120.6Z"/><path class="cls-20" d="M703.32,124.28a3.22,3.22,0,0,1,3,.54.82.82,0,0,0,1.21-.12,8.15,8.15,0,0,1,2.38-1.53c.14-.06.38,0,.34-.28s-.26-.27-.46-.27a11.87,11.87,0,0,0-2.15.21,8,8,0,0,1-2.64-.06,4.73,4.73,0,0,0-1.49-.15c-.45.06-.65-.24-.89-.51C702.72,122.88,703.17,123.53,703.32,124.28Z"/><path class="cls-23" d="M704.12,105.84a2.14,2.14,0,0,0,.88-2.12,25.71,25.71,0,0,0-1.21-3.09,2.26,2.26,0,0,1-2-1.49h-.1c0,1.46-.26,3,.31,4.38.32,0,.38-.26.47-.48s.07-.73.45-.84.64.24.9.48a1.62,1.62,0,0,1,.46.69,3.71,3.71,0,0,1,.29,1,1.52,1.52,0,0,1-.25.9C704.22,105.47,704,105.66,704.12,105.84Z"/><path class="cls-24" d="M667.57,192.37a1.78,1.78,0,0,0,1.92.16.66.66,0,0,0-.28-1.16,7.08,7.08,0,0,0-1.59-.48,9.57,9.57,0,0,1-5.65-2.52c-.09-.09-.19-.12-.28,0,.39,1,1.36,1.2,2.13,1.67a13.64,13.64,0,0,0,3.15,1.32C667.46,191.53,667.91,191.72,667.57,192.37Z"/><path class="cls-25" d="M692.57,205.8c-.26,1-.49,2-.79,3.07a.86.86,0,0,1-1,.63c-.69.32-.36.75-.09,1.12a1.07,1.07,0,0,0,.72.39c.26,0,.45-.06.52-.39a29.69,29.69,0,0,0,.83-4.48C692.83,206,692.88,205.79,692.57,205.8Z"/><path class="cls-26" d="M703.63,106.86c.16-.34.32-.68.49-1a2.12,2.12,0,0,0,.15-1.6,1.29,1.29,0,0,0-1.45-.53c-.7.23-.57.92-.64,1.48l.09.76C702.44,106.89,702.76,107.11,703.63,106.86Z"/><path class="cls-27" d="M702.18,105.19l.05-.07c.5-1.45.5-1.45,1.93-.93.06.09.1.19.21.23a.28.28,0,0,0,.29-.06c.12-.37-.15-.65-.21-1a1.61,1.61,0,0,0-2.14-.36c-.12.16-.23.33-.34.5A4.74,4.74,0,0,0,702.18,105.19Z"/><path class="cls-28" d="M702.12,108.17c0,.29,0,.42,0,.81a5.66,5.66,0,0,0,1.3-1.65,1.19,1.19,0,0,0-1.15-.18A2.11,2.11,0,0,0,702.12,108.17Z"/><path class="cls-29" d="M702.31,107.15a2.27,2.27,0,0,0,1.15.18l.17-.47a1.26,1.26,0,0,1-1.36-.91A1,1,0,0,0,702.31,107.15Z"/><path class="cls-30" d="M687.54,263.35c.16.18.32.31.22.64-.23.71.14,1.42.14,2.14,0,.41.4.4.7.43a6.29,6.29,0,0,0,6.44-5.37c1-6.27.48-12.42-2.45-18.21a13.64,13.64,0,0,0-1.57-2.36c-2.11-2.58-4.86-3.28-8-2.86a24.67,24.67,0,0,1-4.28.62,6.79,6.79,0,0,1-2.11,0l-.29,0a1.54,1.54,0,0,0-1.51-.19l-1.45-.16a11,11,0,0,1-2.74.57,4.88,4.88,0,0,0-1.84.75c-.44.24-.26.55.09.76a1.61,1.61,0,0,0,1.14.1c1.36-.25,2.76-.15,4.11-.47a.36.36,0,0,1,.36.16,59.28,59.28,0,0,1,9.27-1.49c3.68-.13,6,1.92,7.6,5a15.61,15.61,0,0,1,1.55,8.43,43.11,43.11,0,0,1-1.6,9.08c-.22.78-.87,1.14-1.45,1.55A3.51,3.51,0,0,1,687.54,263.35Z"/><path class="cls-18" d="M714.18,150.62,711.86,156c-.51,1.9-1.25,3.75-1.1,5.77,0,.59.07,1.17.17,1.74a2.24,2.24,0,0,0,2.74,2.08c1.27-.13,2.54-.29,3.79-.54.53,0,.79-.38,1.12-.68a19.52,19.52,0,0,0,1.85-3.61c.45-.91.91-1.83,1.36-2.75-.32-.39,1.58-3.05,2-4.33a4.63,4.63,0,0,0,.23-1.37c0-.33.08-.76-.43-.86l-1.51,1.85a1.32,1.32,0,0,0-.43.45c-.08.17-.23.31-.3.49s-.05,0,0,0a4.54,4.54,0,0,1,.3-.53,1.35,1.35,0,0,0,.26-.57,38.92,38.92,0,0,0,2-4.15c.51-1.59,0-3.1-.35-4.62a.67.67,0,0,0-.34-.45l-1,.36c-.17,0-.44.27-.35-.19l.87-.95-2.72-5.26c-.17-.34-.48-.34-.79-.32-.49.05-1,.13-1.48.17s-.4.39-.4.68c0,1.25,0,2.51,0,3.76a19.64,19.64,0,0,1-.85,5.32A6.22,6.22,0,0,1,714.18,150.62Z"/><path class="cls-21" d="M718.58,164.36c-.41,0-.6.48-1,.55a32.52,32.52,0,0,1-3.3.84c-1.82.22-3.35-.05-4.21-1.89-.1-.22-.2-.47-.52-.49-.47,3.61-.42,7.24-.53,10.87,0,1.62,0,3.24,0,4.85l.18.57A65.71,65.71,0,0,0,718.58,164.36Z"/><path class="cls-31" d="M692.57,205.8a.36.36,0,0,1,.17.34,17.1,17.1,0,0,0,.52-7A43.12,43.12,0,0,1,692.57,205.8Z"/><path class="cls-15" d="M677.47,238h1.17c.49-.22,1,0,1.52-.16,1-.14,1.93-.24,2.87-.44a8.08,8.08,0,0,1,6.22.81,11.34,11.34,0,0,1,3.82,4.47,28.51,28.51,0,0,1,2.22,5.94,57.75,57.75,0,0,1,1.69,5.58,27.56,27.56,0,0,1,.49,8c-.05.47.12.61.54.58,1.62-.12,3.23-4,4.85-4.05,3.66,0,7.31.24,11,.17a32,32,0,0,0,16.09-4.67,9.75,9.75,0,0,0,4.81-6.69,13.44,13.44,0,0,0,.28-3.23.7.7,0,0,0-.54-.72c-1.76-.77-3.62-1.3-5.32-2.22a109,109,0,0,0-12.94-6.1c-3-1.12-5.94-2.42-9.15-2.82-1.33-.17-2.65-.33-4-.37-2.85-.08-5.69-.33-8.54-.17-2.44.14-4.87,4.79-7.32,4.68a41.31,41.31,0,0,1-9.92-1.64c-.79-.23-1.58-.47-2.35-.78,4.93-.49,9.86-.86,14.85-1.61a30.37,30.37,0,0,0-3.71-1.47,23,23,0,0,0-7.54-.38A80.05,80.05,0,0,0,666.75,233c-2,.52-4,1.13-6,1.86a5.51,5.51,0,0,0,2.47.44c3,.49,5.89,1.15,8.8,1.93,1,.25,2,.42,2.93.63C675.76,238.41,676.63,238.09,677.47,238Z"/><path class="cls-14" d="M723.86,235.82c1,0,1.29-.3,1.43-1.12a20.43,20.43,0,0,0,.14-3.75,19.19,19.19,0,0,1,.42-4.47c.13-.56-.08-.69-.57-.72-2.46-.16-4.87-.73-7.31-1.09-3.16-.46-6.29-1-9.43-1.58-.47-.08-.74,0-1,.58a53.47,53.47,0,0,0-2,6c-.16.57,0,.73.48.9a145.3,145.3,0,0,0,14.58,4.5C721.78,235.36,722.93,235.52,723.86,235.82Z"/><path class="cls-32" d="M677.47,238a10.57,10.57,0,0,1-2.51-.17l-.17.3,1.51.19C676.62,238,677.16,238.4,677.47,238Z"/><path class="cls-32" d="M676.59,238.38a4.31,4.31,0,0,0,2.11,0Z"/><path class="cls-32" d="M680.16,237.86c-.51.06-1-.16-1.52.16C679.15,238,679.68,238.19,680.16,237.86Z"/><path class="cls-19" d="M732.49,115.57a1,1,0,0,1-.73.37c-.93,0-1,.65-1.11,1.31-.17,1.69-.28,3.38-.45,5.07-.23,2.27-.5,4.54-.75,6.81,0,.11,0,.32.24.2a2.12,2.12,0,0,0,.88-.85,152.9,152.9,0,0,0,7.21-16.06c1-2.6,1.09-5.28-.6-7.74-.16-.22-.22-.68-.69-.48.06.26.13.52.2.78a11.76,11.76,0,0,1-.5,6.59c-.25.11-.33.36-.45.57a7.85,7.85,0,0,1-2.66,2.89C732.86,115.18,732.57,115.26,732.49,115.57Z"/><path class="cls-19" d="M717,88.59a28.07,28.07,0,0,0,4.5,6.09,5,5,0,0,0,1.56,1.11A3.66,3.66,0,0,1,725.16,98a34.71,34.71,0,0,1,1.66,4.54.94.94,0,0,0,.9.8,6.81,6.81,0,0,0,3.38-.27c.58-.2,1.15-.42,1.72-.63.08-.13.33-.18,0-.41-1-.79-2-1.64-3-2.55a11,11,0,0,0,2.95.3,3.79,3.79,0,0,0,.58,0,.89.89,0,0,0,.76-.79c0-.49-7.44-2.68-10.67-4.12A9.94,9.94,0,0,1,719,91c-.53-.82-1.09-1.62-1.63-2.43C717.3,88.44,717.18,88.08,717,88.59Z"/><path class="cls-19" d="M703.83,91.26a51,51,0,0,0,9.95-4,18,18,0,0,0,1.6-1,28.64,28.64,0,0,1,2.53-3.33c-1.06.63-2.11,1.26-3.18,1.88-1.49.86-10.86,6.06-11.07,6.26C703.2,91.47,703.6,91.32,703.83,91.26Z"/><path class="cls-33" d="M723.26,143.9A18.13,18.13,0,0,1,724,149a10.25,10.25,0,0,0,.91-2.06c.72-1.89,1.4-3.8,2.3-5.66A20.79,20.79,0,0,1,723.26,143.9Z"/><path class="cls-34" d="M723.58,151.44a3.84,3.84,0,0,1,.07,2.6,14.44,14.44,0,0,0,1.49-4.57Z"/><path class="cls-35" d="M721.91,144.07a.77.77,0,0,0-.43.45,1,1,0,0,0,.78-.26C722.13,144.24,722,144.23,721.91,144.07Z"/><path class="cls-36" d="M721.91,153.12l-.34.51c-.06.18,0,.21.17.17l.33-.51Z"/><path class="cls-37" d="M701.55,99.14a5.33,5.33,0,0,0,.08,1c.77-.14,1,.71,1.63.83.08,0,.82-.85.48-1.22s-.81-1.12-1.43-1.34C701.94,98.25,701.62,98.86,701.55,99.14Z"/><path class="cls-38" d="M704.32,104.3l-.16-.11c0,.55,0,1.1,0,1.65a2.88,2.88,0,0,0,.34-.52C704.42,105,704.62,104.61,704.32,104.3Z"/><path class="cls-14" d="M710,156.31a23.22,23.22,0,0,1-.55-3.71c0-.19,0-.46-.18-.52s-.3.26-.42.43a19.14,19.14,0,0,1-2.08,3.35v-2.55a8.88,8.88,0,0,0-3,3.16c-2.15,4.09-2.62,8.54-3.75,12.9-.09.19-.24.3.07.28a34.56,34.56,0,0,1,2.59-6.56,4.07,4.07,0,0,1-.12,1.74,13.62,13.62,0,0,1-.4,1.79c-.94,3.95-2,7.88-2.8,11.85a45.89,45.89,0,0,0-.83,6.1,17.42,17.42,0,0,0,.28,4.62,2.9,2.9,0,0,0,2.07,2.29,17.42,17.42,0,0,0,5.07.89c1,0,1.25-.35,1.1-1.34a28.24,28.24,0,0,1-.46-7.79,41.25,41.25,0,0,0,.17-4.59c0-2.59.13-5.18.24-7.77a40,40,0,0,1,2.2-11.34A12,12,0,0,0,710,156.31Z"/><path class="cls-22" d="M709.55,163.37c1.28,2.35,1.77,2.9,5.06,2.53a6.63,6.63,0,0,0,3-1c-.72-.23-1.36.24-2.06.23-1.07,0-2.13.46-3.21,0a1.47,1.47,0,0,1-1.08-1.22,12.8,12.8,0,0,1,.26-5.93,10,10,0,0,0,.37-2,21,21,0,0,0-.92,2.29l-.43-.77A34.27,34.27,0,0,0,709.55,163.37Z"/><path class="cls-18" d="M732.49,115.57a7.33,7.33,0,0,0,3.7-4c-.24-.39-.34-.86-.82-1.11a1.36,1.36,0,0,0-1.69.13,9.45,9.45,0,0,1-2.86,1.81,1.42,1.42,0,0,0-1,1.77,2,2,0,0,0,1.67,1.4C731.82,115.58,732.16,115.57,732.49,115.57Z"/><path class="cls-39" d="M702.31,103a3.2,3.2,0,0,1,2.14.36,2,2,0,0,0-.67-1c-.28-.28-.61-.57-1-.4A.89.89,0,0,0,702.31,103Z"/><path class="cls-40" d="M704.32,104.3c0,.34-.14.71.14,1a3.25,3.25,0,0,0,.2-1Z"/><path class="cls-41" d="M702.47,105.25c0,.44.21.76.7.75s.49-.38.47-.73-.13-.84-.62-.83S702.5,104.87,702.47,105.25Z"/><path class="cls-42" d="M721.74,153.8l-.17-.17a1.21,1.21,0,0,0-.35.68.12.12,0,0,0,.19,0Z"/><path class="cls-43" d="M721.41,154.31h-.19c-.14.09-.34.29-.23.34S721.3,154.47,721.41,154.31Z"/><path class="cls-20" d="M645,346.88a29.39,29.39,0,0,0,6.41-2.43c3-1.55,5.83-3.54,8.79-5.21a15.92,15.92,0,0,0,3.87-3.19l.48-.54a7.84,7.84,0,0,1,1.68-.32c4-.34,8,5.42,13.12,5.65h.22a16.46,16.46,0,0,1-4.84,6.54c-1.24,1.13-2.84.17-4.24,1.08a13.08,13.08,0,0,1-3,.7c-3.14.11-6.13.95-9.28,1-4.4.15-8.8.84-13.2.91a7.7,7.7,0,0,1-1-2.48C643.56,347.47,643.73,347.18,645,346.88Z"/><path class="cls-44" d="M673.89,341.64c-.63-.1-.77-.14-1.09.49s-1.65-.55-4.92-.7c-4.74-.21-8.53-5.59-12.22-5.27s-4.22,2.64-7.91,4.53-6.5,4.43-10.08,5.38-4.69,1.18-4.38,3.49.74,1.69.74,1.69l22.68-.75H674C675.16,350.5,673.89,341.64,673.89,341.64Z"/><path class="cls-45" d="M637.67,346.07c3.58-.95,6.39-3.48,10.08-5.38s4.22-4.21,7.91-4.53c1.85-.16,3.73,1.12,5.74,2.46-1.44,1.16-4.26,2.38-8.43,4.08-5.59,2.26-7.89,3.44-11.33,4.69-2.42.87-1.79,2.76-1.58,3.79l-6,.07s-.42.63-.74-1.69S634.09,347,637.67,346.07Z"/><path class="cls-46" d="M634.35,352.2l22.35-.64,17.17-.21c.67,0,.68-.39.68-.85s.12-.83-.34-.83c0,0-4.36-.48-7.52-.48s-6.71.48-11,.69-21.84.63-21.84.63c-.46,0-.47.09-.47.87a1.06,1.06,0,0,0,.17.72C633.7,352.23,634.35,352.2,634.35,352.2Z"/><path class="cls-47" d="M639.9,350.36c5.51-.14,13.2-.35,15.82-.48,4.26-.21,7.8-.69,11-.69s7.52.48,7.52.48c.46,0,.33.36.34.83s0,.85-.68.85l-17.17.21-16.8.48Z"/><path class="cls-48" d="M633.46,350.93l0-.84c.18,0,18.06-.43,22.26-.63,1.79-.09,3.42-.23,5-.35,2.13-.18,4.14-.34,6-.34,3.14,0,7.86.47,7.91.48l-.08.84s-4.73-.48-7.83-.48c-1.82,0-3.81.17-5.92.34-1.59.13-3.23.26-5,.35C651.53,350.51,633.64,350.93,633.46,350.93Z"/><path class="cls-49" d="M684.29,337.43c-.63-.11-.77-.14-1.09.49s-1.65,3.66-4.92,3.51c-4.74-.21-8.53-5.59-12.22-5.27s-4.22,2.64-7.91,4.53-6.5,4.43-10.08,5.38-4.69,1.18-4.37,3.49.73,1.69.73,1.69l22.68-.75H684.4C685.56,350.5,684.29,337.43,684.29,337.43Z"/><path class="cls-50" d="M648.07,346.07c3.58-.95,6.39-3.48,10.08-5.38s4.22-4.21,7.91-4.53c1.85-.16,3.73,1.12,5.74,2.46-1.44,1.16-4.26,2.38-8.43,4.08-5.59,2.26-7.89,3.44-11.33,4.69-2.42.87-1.79,2.76-1.58,3.79l-6,.07s-.42.63-.73-1.69S644.49,347,648.07,346.07Z"/><path class="cls-46" d="M644.75,352.2l22.35-.64,17.17-.21c.67,0,.68-.39.68-.85s.12-.83-.34-.83c0,0-4.36-.48-7.52-.48s-6.71.48-11,.69-21.84.63-21.84.63c-.46,0-.47.09-.47.87a1.06,1.06,0,0,0,.17.72C644.1,352.23,644.75,352.2,644.75,352.2Z"/><path class="cls-47" d="M650.3,350.36c5.51-.14,13.2-.35,15.82-.48,4.26-.21,7.8-.69,11-.69s7.52.48,7.52.48c.46,0,.33.36.34.83s0,.85-.68.85l-17.17.21-16.8.48Z"/><path class="cls-48" d="M643.86,350.93l0-.84c.18,0,18.06-.43,22.26-.63,1.79-.09,3.42-.23,5-.35,2.13-.18,4.14-.34,6-.34,3.14,0,7.86.47,7.91.48l-.08.84s-4.73-.48-7.83-.48c-1.82,0-3.81.17-5.92.34-1.59.13-3.23.26-5,.35C661.93,350.51,644,350.93,643.86,350.93Z"/></g><path class="cls-20" d="M708.61,99.08a7,7,0,0,0,1,2.14c.44.77.87,1.45.69,2.12.44-.09.08-.78.14-.87,1.08-1.34,1.54-1.25,2.83,0a13.84,13.84,0,0,1,2.3,3,10.09,10.09,0,0,1-.93.92c-1.25.62-2.56-.11-3.92-.21a6.14,6.14,0,0,0,4.32,0,25.15,25.15,0,0,0,3.9-1.86,3.85,3.85,0,0,0-1.22-2.56l-3.09-2.18c-1.48-.92-1-1-2.74-1.2-.43,0-1.31-.21-1.59.09C709.7,99.1,709.4,99.28,708.61,99.08Z"/><path class="cls-37" d="M709.68,97.82a4,4,0,0,1,2-.39c2.14.51,3.31,1.44,5.17,3.3.19.22,1.18,1.32,1.19,1.36-.26,0-4.15-2.51-5.75-2.73-.67-.09-1.92-.38-2.31.2-.6.86-.71,1-1.4.5C708.18,99.52,708.58,98.43,709.68,97.82Z"/><g id="_7sSnV0" data-name="7sSnV0"><path class="cls-39" d="M716.59,104.91a7.25,7.25,0,0,0-2.49-3.61c-1.78-1.11-3.39.81-3.55,1.07.66.3,1.59.14,2.26.46a33.6,33.6,0,0,1,3.24,1.87C716.22,104.8,716.37,105,716.59,104.91Z"/></g><path class="cls-40" d="M711.22,103.13c-.49.18-.82.55-.49,2.34,0,0-.25,1.43,2,1.14a6.79,6.79,0,0,0,2.91-.89,2.49,2.49,0,0,0,.85-.77S712.5,102.66,711.22,103.13Z"/><path class="cls-26" d="M710.8,104.53c0,1,.54,1.77,1.21,1.77s1.2-.79,1.2-1.77-.54-1.77-1.2-1.77S710.8,103.55,710.8,104.53Z"/><path class="cls-51" d="M711.45,106.34a.78.78,0,0,1-.7-.88c-1.16,2.4,4.74,1.35,5.79-.39.07-.11-.11,0-.09-.12C715.56,105.59,713.18,106.7,711.45,106.34Z"/><path class="cls-52" d="M711.18,103.1c1.28-.47,5.27,1.85,5.27,1.85l-.26.17c-2.72-1.14-4.26-1.48-5-1.25a.77.77,0,0,0-.55.92C710.52,103.24,710.75,103.26,711.18,103.1Z"/><path class="cls-27" d="M716.61,105a13.88,13.88,0,0,0-3.89-2.48,3.65,3.65,0,0,0-1.9-.36,1.4,1.4,0,0,0-.72,1.5,6.84,6.84,0,0,0,.54,1.17,1.69,1.69,0,0,1,0-.42c.11-1.33.19-2.08,5.67.64C716.41,105.08,716.61,105,716.61,105Z"/><path class="cls-41" d="M711.27,104.49c0,.45.24.81.55.81s.54-.36.54-.81-.24-.8-.54-.8S711.27,104.05,711.27,104.49Z"/><rect class="cls-53" x="519.76" y="218.37" width="74.68" height="133.33"/><rect class="cls-54" x="682.27" y="216.68" width="57.56" height="135.03"/><polygon class="cls-55" points="527.15 351.71 519.48 351.71 519.48 216.68 527.15 217.6 527.15 351.71"/><rect class="cls-53" x="690.52" y="218.37" width="74.68" height="133.33"/><rect class="cls-55" x="514.89" y="213.73" width="170.61" height="8.63"/><rect class="cls-53" x="520.32" y="222.17" width="171.07" height="8.53"/><rect class="cls-56" x="690.57" y="221.9" width="74.71" height="8.53"/><rect class="cls-53" x="685.23" y="213.73" width="84.17" height="8.59"/><polygon class="cls-57" points="685.08 213.31 685.08 213.31 769.4 213.31 769.4 214.31 514.89 214.31 514.89 213.31 685.08 213.31"/><path class="cls-18" d="M716.33,88.51c-.25-.65-.05-1.05-.35-1.65s1.18-3,1.84-3.83c0,0-2.68,3.48-4,4.23a16,16,0,0,0-2.23,1.5Z"/><polygon class="cls-56" points="594.44 351.7 566.54 351.7 527.33 276.89 527.33 230.17 594.44 230.17 594.44 351.7"/><path class="cls-58" d="M584.88,147.6a16,16,0,0,1,.32-6.27c.88-2.85,4.56-10.36,3.4-13s-5.39-9.63-8-9.61,2.73,7.52,2,9.86-1,2.53-1.88,2.33-2.28-4.7-2.74-3.65-.19,8,.67,9.72-.91,11.5-.91,11.5Z"/><path class="cls-59" d="M587,146.08s-5.76-3.28-10.22-1.9c0,0-8.85,25.49-13.72,44.23a394.67,394.67,0,0,1-15.11-46.1S536.57,158,532.48,168.38s20.37,47,29.86,49.82c9.91,3,8.11,0,13.7-3.2C577.84,212.66,583.59,201.05,587,146.08Z"/><path class="cls-60" d="M613,345.21l.17.07h33.11c-.31-1.18-1.4-3.32-5.18-3.94-5.14-.83-14-3.82-16-10.39-.06-.21-.12-.43-.17-.64-1.58-7-13,2.15-13,2.15s0,.28-.09.75C611.55,335.79,610.87,344.12,613,345.21Z"/><path class="cls-61" d="M589.53,223.26a43.38,43.38,0,0,0-7.21,4.37,20,20,0,0,0-1.1-3.8c-28.42-7.4-104.46-6.8-104.46-6.8s-16.35,4.1-11.55,27.9c4.42,21.9,77.43,11.76,101,5.19.55-.16,1.08-.32,1.6-.49-1.87,14,11.27,33.87,22.77,52.19,9.48,15.1,17.55,30.39,17.55,30.39,4.77,3,20.76,1.24,20.76,1.24C618.8,304.91,589.53,223.26,589.53,223.26Z"/><path class="cls-62" d="M526.83,134.58s8.15,26.11,20.4,31.95c0,0,1.16-7.92-.82-13.95,1.62-1.24,3.05-2.39,4.3-3.42a80.25,80.25,0,0,0,6.26-5.67l-1.82-12.74-1.24-8.63a39.31,39.31,0,0,1-6.1,5.68C537.23,135.69,526.83,134.58,526.83,134.58Z"/><path class="cls-58" d="M547.81,127.8s-4.11,11.3,2.9,21.36a80.25,80.25,0,0,0,6.26-5.67l-1.82-12.74A25.65,25.65,0,0,0,547.81,127.8Z"/><path class="cls-62" d="M560.07,146S542,134,549.65,122.84s10.44-20.17,22.3-13,11.16,13,9.51,17.28S565,148.79,560.07,146Z"/><path class="cls-63" d="M551.75,99.54c-.08-.31-.42-.69-1.33-1.2a4.17,4.17,0,0,1,2,.36c.85-1.23,2.69-3.24,5.22-2.71a3.17,3.17,0,0,0-2.38,1.4c3.94-1.45,10.5-.69,25.36,8.13,19.58,11.62,6.37,21.58,3,21.87s-7.93-7.3-13-9.31S561,122.82,558.8,123s-.64-1.25-2.39-3.39-3.83,1.55-4.38,4.34-5.26,4.52-5.26,4.52l-1.45-5c-1.46-5,2.7-20.93,5.64-23.32Z"/><path class="cls-64" d="M548.8,178.08a176.46,176.46,0,0,1-11,22.13c-2.34,3.86-4.85,7.41-7.14,10.51l-.22.29c-4.52,6.08-11.43,7.76-11.22,9.28.43,3.06-7.29,10.4-20,13.66-14.78,3.78-31.92,5.59-36.25.6-1.44-1.68-1.93-4.77-1.77-8.61.32-8.08,10.49-40.62,10.49-40.62,17.41-52.67,67.24-52.67,67.24-52.67s-1,12.62,11.26,17C550.13,149.67,553,168.17,548.8,178.08Z"/><path class="cls-62" d="M578.07,215.55s7.49,2.65,9.54,3.94,6.78,7.75,7.31,10,1.15,8.93.77,10.05-6.12-3.16-7.39-7.18-4.55-5.11-4.42-4.89,1.8,5.36,1.44,5.59-1.87.6-3.26-2.27-4.11-5-3.6-8A24,24,0,0,0,578.07,215.55Z"/><path class="cls-59" d="M519.44,220.72c.43,3.06-7.54,10-20.29,13.23-10.63-21.15,9.58-69.55,9.58-69.55l21.9,46.32C526,217,519.22,219.17,519.44,220.72Z"/><path class="cls-59" d="M537.77,200.21c-2.34,3.86-4.85,7.41-7.14,10.51l-.22.29a17.8,17.8,0,0,1-7.49-5.59c-3.44-4.87-3.73-34.14-3.73-34.14S533.31,188.72,537.77,200.21Z"/><path class="cls-64" d="M580.94,216.21s-34.14-9.56-51.67-13.74c1.55-20.68,6.61-83.2-25.24-58.17,0,0-2.4,67,13,80.57,0,0,49.53,1,59,.47,0,0,2.77-1.43,3.46-2.39A9.43,9.43,0,0,0,580.94,216.21Z"/><rect class="cls-65" x="464.02" y="252.4" width="87.75" height="23.06" rx="4.94"/><path class="cls-66" d="M551.78,268.12v2.4a5,5,0,0,1-4.94,4.94H469a5,5,0,0,1-5-4.94v-2.6h86.34A5.13,5.13,0,0,1,551.78,268.12Z"/><path class="cls-67" d="M482.77,275.46l-3.51,13.3h0L464.64,344.1h-1.53l8.44-45.91,0-.14,4.18-22.71Z"/><path class="cls-68" d="M482.77,275.46l-3.51,13.3h0c-.21.1-6.6,3.4-7.68,9.29l4.18-22.71Z"/><path class="cls-67" d="M551.78,344.1h-1.54L538.34,299h0l-2.71-10.25h0l-3.51-13.3,7-.12,2.39,13,1.78,9.73a.7.7,0,0,1,0,.14Z"/><path class="cls-67" d="M528,292.87h0C528,292.8,528,292.81,528,292.87Z"/><path class="cls-68" d="M541.52,288.32A19.33,19.33,0,0,0,538.34,299l-2.71-10.25h0l-3.51-13.3,7-.12Z"/><path class="cls-69" d="M681.05,111.4a55.89,55.89,0,0,1-4.1,12.46l-.24.52c0,.08-.08.17-.13.25s-.21.43-.32.64l-.18.34c-.1.2-.21.4-.32.6s-.22.41-.34.61-.39.68-.59,1l-.12.19-.33.52-.12.2-.32.49-.18.27c-.11.15-.21.31-.32.47h0l-.17.25h0l0,0c-.11.15-.21.3-.32.44l-.13.18-.32.43-.18.23c-.11.13-.21.27-.32.41l-.34.42-.33.39-.24.28s0,0,0,0l0,.05-.33.37-.71.78-.33.34c-.25.26-.51.51-.77.76-.1.11-.21.21-.32.31l-.57.52h0l-.33.29-.32.28c-.59.5-1.19,1-1.81,1.43l-.32.24c-.44.31-.89.62-1.35.92l-.69.43c-.5.31-1,.6-1.52.88s-.81.43-1.21.63c-.62.3-1.26.59-1.9.86l-.32.13-.57.23-.83.31c-.62.22-1.25.43-1.89.62l-.68.2c-.88.25-1.79.46-2.71.65-.7.15-1.42.28-2.15.39a48.11,48.11,0,0,1-5.22.5l-.89,0h-2.91a73.75,73.75,0,0,1-13.64-1.59l-1-.22a56.92,56.92,0,0,1-11.31-3.79l-.26-.12c-.88-.41-1.73-.85-2.55-1.31-9.16-5.09-14.94-13-12.42-23.9,3.92-16.94,27.59-35.07,48.73-39.51C678.76,68.27,685.81,89,681.05,111.4Z"/><path class="cls-64" d="M663.83,139.36l-.69.43c-.5.31-1,.6-1.52.88s-.81.43-1.21.63c-.62.3-1.26.59-1.9.86l-.32.13-.57.23H645.7a.65.65,0,0,1-.31-.08.68.68,0,0,1-.37-.54V140a.68.68,0,0,1,.68-.65Z"/><path class="cls-59" d="M658.51,139.36v2.8l-.32.13v-2.93Z"/><rect class="cls-59" x="655.46" y="139.36" width="0.32" height="3.16"/><path class="cls-64" d="M668,136.19h0l-.33.29-.32.28c-.59.5-1.19,1-1.81,1.43l-.32.24c-.44.31-.89.62-1.35.92H646.38a.69.69,0,0,1-.68-.66v-1.85a.68.68,0,0,1,.6-.65H668Z"/><path class="cls-59" d="M667.63,136.19v.3l-.32.28v-.58Z"/><path class="cls-59" d="M665.5,136.19v2l-.32.24v-2.25Z"/><rect class="cls-59" x="661.92" y="136.19" width="0.32" height="3.16"/><rect class="cls-59" x="658.87" y="136.19" width="0.32" height="3.16"/><rect class="cls-59" x="656.14" y="136.19" width="0.32" height="3.16"/><path class="cls-64" d="M670,133v1.22l.71-.78V133Zm0,0v1.22l.71-.78.33-.37,0-.05s0,0,0,0Zm0,0v1.22l.71-.78.33-.37,0-.05s0,0,0,0Zm0,0v1.22l.71-.78.33-.37,0-.05s0,0,0,0Zm0,0v1.22l.71-.78.33-.37,0-.05s0,0,0,0Zm0,0v1.22l.71-.78.33-.37,0-.05s0,0,0,0Zm0,0v1.22l.71-.78V133Zm-25.67,0a.39.39,0,0,0-.15,0h0a.68.68,0,0,0-.5.55.09.09,0,0,0,0,0v1.93a.3.3,0,0,0,0,.1.7.7,0,0,0,.66.51H668l.57-.52c.11-.1.22-.2.32-.31.26-.25.52-.5.77-.76l.33-.34.71-.78.33-.37,0-.05s0,0,0,0Z"/><path class="cls-59" d="M659.45,136.2H644.22a.64.64,0,0,1-.61-.65v-1.89a.65.65,0,0,1,.47-.6h13.5v0a5.57,5.57,0,0,0,1.86,3.13Z"/><path class="cls-59" d="M670,133v1.22l-.33.34V133Z"/><path class="cls-59" d="M668.86,133v2.32c-.1.11-.21.21-.32.31V133Z"/><rect class="cls-59" x="667.23" y="133.04" width="0.32" height="3.16"/><rect class="cls-59" x="665.22" y="133.04" width="0.32" height="3.16"/><rect class="cls-59" x="663.09" y="133.04" width="0.32" height="3.16"/><rect class="cls-59" x="659.83" y="133.04" width="0.32" height="3.16"/><rect class="cls-59" x="656.78" y="133.04" width="0.32" height="3.16"/><rect class="cls-59" x="654.05" y="133.04" width="0.32" height="3.16"/><path class="cls-59" d="M671,133v.07l-.33.37V133Z"/><path class="cls-64" d="M671,130v-.08h-.1V133h.12l.24-.28.33-.39V130Zm2.2.22-.06-.07h0l0,0,0,0s0,0,0,0l-.07,0h0l0,0h0l-.13,0H644.23a.69.69,0,0,0-.68.65v1.92a.69.69,0,0,0,.56.58H671s0,0,0,0l.24-.28.33-.39L672,132c.11-.14.21-.28.32-.41l.18-.23.32-.43.13-.18c.11-.14.21-.29.32-.44l0,0h0ZM671,130v-.08h-.1V133h.12l.24-.28.33-.39V130Z"/><path class="cls-59" d="M659.39,133.06H644.08a.66.66,0,0,1-.53-.65v-1.86a.64.64,0,0,1,.61-.65h13.36l0,.08a5.68,5.68,0,0,0,1.83,3.06Z"/><rect class="cls-59" x="669.57" y="129.9" width="0.32" height="3.16"/><rect class="cls-59" x="668.48" y="129.9" width="0.32" height="3.16"/><rect class="cls-59" x="667.17" y="129.9" width="0.32" height="3.16"/><rect class="cls-59" x="665.16" y="129.9" width="0.32" height="3.16"/><rect class="cls-59" x="663.03" y="129.9" width="0.32" height="3.16"/><rect class="cls-59" x="659.77" y="129.9" width="0.32" height="3.16"/><rect class="cls-59" x="656.72" y="129.9" width="0.32" height="3.16"/><rect class="cls-59" x="653.99" y="129.9" width="0.32" height="3.16"/><rect class="cls-59" x="670.61" y="129.9" width="0.32" height="3.16"/><path class="cls-59" d="M671.63,129.9v2.47l-.33.39V129.9Z"/><path class="cls-59" d="M672.29,129.9v1.64c-.11.13-.21.27-.32.41v-2Z"/><path class="cls-59" d="M672.79,129.91v1l-.32.43V129.9h.32Z"/><path class="cls-64" d="M674.83,127.51v.33l-.12.19-.33.52-.12.2-.32.49-.18.27c-.11.15-.21.31-.32.47H645.7a.7.7,0,0,1-.63-.43.41.41,0,0,1-.05-.19v-1.89a.59.59,0,0,1,.05-.23.68.68,0,0,1,.63-.42h28.56l.12,0a.7.7,0,0,1,.45.65Z"/><path class="cls-59" d="M660.86,130H645.63a.54.54,0,0,1-.28-.08.71.71,0,0,1-.33-.54v-1.89a.64.64,0,0,1,.61-.65H659a5.77,5.77,0,0,0,1.78,3.08Z"/><rect class="cls-59" x="671.04" y="126.82" width="0.32" height="3.16"/><rect class="cls-59" x="669.95" y="126.82" width="0.32" height="3.16"/><rect class="cls-59" x="668.64" y="126.82" width="0.32" height="3.16"/><rect class="cls-59" x="666.63" y="126.82" width="0.32" height="3.16"/><rect class="cls-59" x="664.5" y="126.82" width="0.32" height="3.16"/><rect class="cls-59" x="661.24" y="126.82" width="0.32" height="3.16"/><rect class="cls-59" x="658.19" y="126.82" width="0.32" height="3.16"/><rect class="cls-59" x="655.46" y="126.82" width="0.32" height="3.16"/><rect class="cls-59" x="672.08" y="126.82" width="0.32" height="3.16"/><rect class="cls-59" x="672.77" y="126.82" width="0.32" height="3.16"/><path class="cls-59" d="M673.76,126.82v2.69c-.11.15-.21.31-.32.47v-3.16Z"/><path class="cls-59" d="M674.26,126.83v1.92l-.32.49v-2.42h.32Z"/><path class="cls-59" d="M674.71,127.12V128l-.33.52v-1.69A.71.71,0,0,1,674.71,127.12Z"/><path class="cls-64" d="M677,123.86l-.24.52c0,.08-.08.17-.13.25s-.21.43-.32.64l-.18.34c-.1.2-.21.4-.32.6s-.22.41-.34.61H648a.69.69,0,0,1-.69-.66v-1.85a.69.69,0,0,1,.6-.65h28.64a.5.5,0,0,1,.13,0l0,0h0l.07,0,0,0h0Z"/><path class="cls-59" d="M663.19,126.82H648a.66.66,0,0,1-.61-.66v-1.85a.66.66,0,0,1,.54-.65h13.44A5.66,5.66,0,0,0,663.19,126.82Z"/><rect class="cls-59" x="673.37" y="123.66" width="0.32" height="3.16"/><rect class="cls-59" x="672.27" y="123.66" width="0.32" height="3.16"/><rect class="cls-59" x="670.96" y="123.66" width="0.32" height="3.16"/><rect class="cls-59" x="668.95" y="123.66" width="0.32" height="3.16"/><rect class="cls-59" x="666.82" y="123.66" width="0.32" height="3.16"/><rect class="cls-59" x="663.56" y="123.66" width="0.32" height="3.16"/><rect class="cls-59" x="660.51" y="123.66" width="0.32" height="3.16"/><rect class="cls-59" x="657.79" y="123.66" width="0.32" height="3.16"/><rect class="cls-59" x="674.41" y="123.66" width="0.32" height="3.16"/><rect class="cls-59" x="675.1" y="123.66" width="0.32" height="3.16"/><path class="cls-59" d="M676.08,123.66v2c-.1.2-.21.4-.32.6v-2.55Z"/><path class="cls-59" d="M676.58,123.67v1c-.1.22-.21.43-.32.64v-1.61h.32Z"/><path class="cls-59" d="M677,123.86l-.24.52v-.68l0,0h0l.07,0,0,0h0Z"/><path class="cls-64" d="M673.42,121.19V123a.75.75,0,0,1-.12.39.72.72,0,0,1-.32.25l-.13,0H644.29a.68.68,0,0,1-.68-.65v-1.86a.68.68,0,0,1,.68-.65h28.56l.13,0,0,0,0,0h0l0,0h0l0,0,.06.06,0,0h0l0,0,0,0A.75.75,0,0,1,673.42,121.19Z"/><path class="cls-59" d="M659.45,123.66H644.22a.64.64,0,0,1-.61-.65v-1.86a.64.64,0,0,1,.61-.65h13.36s0,0,0,.07a5.63,5.63,0,0,0,1.85,3.09Z"/><rect class="cls-59" x="669.63" y="120.5" width="0.32" height="3.16"/><rect class="cls-59" x="668.54" y="120.5" width="0.32" height="3.16"/><rect class="cls-59" x="667.23" y="120.5" width="0.32" height="3.16"/><rect class="cls-59" x="665.22" y="120.5" width="0.32" height="3.16"/><rect class="cls-59" x="663.09" y="120.5" width="0.32" height="3.16"/><rect class="cls-59" x="659.83" y="120.5" width="0.32" height="3.16"/><rect class="cls-59" x="656.78" y="120.5" width="0.32" height="3.16"/><rect class="cls-59" x="654.05" y="120.5" width="0.32" height="3.16"/><rect class="cls-59" x="670.67" y="120.5" width="0.32" height="3.16"/><rect class="cls-59" x="671.36" y="120.5" width="0.32" height="3.16"/><rect class="cls-59" x="672.03" y="120.5" width="0.32" height="3.16"/><path class="cls-59" d="M672.85,120.51v3.14h-.32V120.5h.32Z"/><path class="cls-59" d="M673.3,120.8v2.56a.72.72,0,0,1-.32.25v-3.06A.72.72,0,0,1,673.3,120.8Z"/><path class="cls-64" d="M675.51,118.1v1.78a.72.72,0,0,1-.12.39.74.74,0,0,1-.32.26l-.13,0H646.38a.6.6,0,0,1-.3-.07.68.68,0,0,1-.38-.55v-1.89a.68.68,0,0,1,.6-.64h28.64l.13,0a.68.68,0,0,1,.32.26A.71.71,0,0,1,675.51,118.1Z"/><path class="cls-59" d="M661.54,120.57H646.31a.5.5,0,0,1-.27-.07.68.68,0,0,1-.34-.55v-1.89a.65.65,0,0,1,.54-.64h13.43a5.7,5.7,0,0,0,1.79,3.08Z"/><rect class="cls-59" x="671.72" y="117.41" width="0.32" height="3.16"/><rect class="cls-59" x="670.63" y="117.41" width="0.32" height="3.16"/><rect class="cls-59" x="669.32" y="117.41" width="0.32" height="3.16"/><rect class="cls-59" x="667.31" y="117.41" width="0.32" height="3.16"/><rect class="cls-59" x="665.18" y="117.41" width="0.32" height="3.16"/><rect class="cls-59" x="661.92" y="117.41" width="0.32" height="3.16"/><rect class="cls-59" x="658.87" y="117.41" width="0.32" height="3.16"/><rect class="cls-59" x="656.14" y="117.41" width="0.32" height="3.16"/><rect class="cls-59" x="672.76" y="117.41" width="0.32" height="3.16"/><rect class="cls-59" x="673.45" y="117.41" width="0.32" height="3.16"/><rect class="cls-59" x="674.12" y="117.41" width="0.32" height="3.16"/><path class="cls-59" d="M674.94,117.42v3.14h-.32v-3.16h.32Z"/><path class="cls-59" d="M675.39,117.72v2.55a.74.74,0,0,1-.32.26v-3.07A.68.68,0,0,1,675.39,117.72Z"/><path class="cls-64" d="M673.42,114.94v1.79a.71.71,0,0,1-.12.38.68.68,0,0,1-.32.26l-.13,0H644.29a.68.68,0,0,1-.68-.66v-1.85a.68.68,0,0,1,.68-.65h28.56l.13,0a.68.68,0,0,1,.32.26A.71.71,0,0,1,673.42,114.94Z"/><path class="cls-59" d="M659.45,117.42H644.22a.64.64,0,0,1-.61-.66v-1.85a.64.64,0,0,1,.61-.65h13.36a5.7,5.7,0,0,0,1.87,3.15Z"/><rect class="cls-59" x="669.63" y="114.26" width="0.32" height="3.16"/><rect class="cls-59" x="668.54" y="114.26" width="0.32" height="3.16"/><rect class="cls-59" x="667.23" y="114.26" width="0.32" height="3.16"/><rect class="cls-59" x="665.22" y="114.26" width="0.32" height="3.16"/><rect class="cls-59" x="663.09" y="114.26" width="0.32" height="3.16"/><rect class="cls-59" x="659.83" y="114.26" width="0.32" height="3.16"/><rect class="cls-59" x="656.78" y="114.26" width="0.32" height="3.16"/><rect class="cls-59" x="654.05" y="114.26" width="0.32" height="3.16"/><rect class="cls-59" x="670.67" y="114.26" width="0.32" height="3.16"/><rect class="cls-59" x="671.36" y="114.26" width="0.32" height="3.16"/><rect class="cls-59" x="672.03" y="114.26" width="0.32" height="3.16"/><path class="cls-59" d="M672.85,114.27v3.14h-.32v-3.16h.32Z"/><path class="cls-59" d="M673.3,114.56v2.55a.68.68,0,0,1-.32.26V114.3A.68.68,0,0,1,673.3,114.56Z"/><path class="cls-66" d="M663.14,108.37,649.31,92.94a2.43,2.43,0,0,0-4.24,1.62v38.89s18.07,2.51,18.07,0Z"/><path class="cls-70" d="M638.91,132.91l6.06-.77a31.93,31.93,0,0,1,.35-8.78A30.82,30.82,0,0,1,650.23,111c4.92-7.12,20.22-11.63,20.22-11.63l0-.89-.56,0a2.52,2.52,0,0,1,.55-.28l-.09-2.12a7.27,7.27,0,0,0-1.75.25,10.85,10.85,0,0,1,1.75-.39l0-1.11c-22.37,1.52-29.12,15.35-31,25.92A41.76,41.76,0,0,0,638.91,132.91Z"/><path class="cls-71" d="M612.23,132.05l26.68.86a44.31,44.31,0,0,1,1.76-11.64,54.54,54.54,0,0,1,1.81-5.48c7.24-17.77,27.78-21,27.78-21L647,86.37a33.6,33.6,0,0,0-23.73,13.82C613.15,113.7,612.23,132.05,612.23,132.05Z"/><path class="cls-72" d="M612.23,132.05l26.68.86,6.06-.77a31.93,31.93,0,0,1,.35-8.78,36.52,36.52,0,0,0-4.65-2.09l-1.39-.54c-17.26-7.12-16.18-19.36-16-20.54C613.15,113.7,612.23,132.05,612.23,132.05Z"/><path class="cls-70" d="M646.87,87.74h-.07a26.87,26.87,0,0,0-11,3.28,34.22,34.22,0,0,0-9.53,7.46,39.62,39.62,0,0,0-3.08,3.87,44.91,44.91,0,0,0-3,5c-.49.93-1,1.88-1.39,2.87l-.12.26c-.33.76-.66,1.53-1,2.32A70.42,70.42,0,0,0,614.59,123q-.17.8-.3,1.59c-.06.36-.12.72-.16,1.07a20.35,20.35,0,0,0-.21,2.62c0,.44,0,.86,0,1.26h0l.21,2.09,0,.45.07.67.07.68,0,.24,0,.31,16.91-1,1.39-.08h.16l.92-.06.91-.05h0l3.4-.21-.1-.45a31.31,31.31,0,0,1,.19-11.87c0-.15.07-.31.1-.47.11-.49.23-1,.36-1.49s.22-.77.34-1.16l.42-1.25.06-.15a29.24,29.24,0,0,1,2.56-5.28l.16-.26a28.44,28.44,0,0,1,2.06-2.87c.26-.34.54-.67.83-1,.47-.54,1-1.06,1.48-1.58s1.33-1.25,2-1.85h0a37.25,37.25,0,0,1,6-4.07c.18-.11.37-.21.56-.31h0a51.79,51.79,0,0,1,9.37-3.82l1.15-.35ZM661.09,95a48.93,48.93,0,0,0-7,3.21,37.46,37.46,0,0,0-8.07,6c-.31.31-.62.62-.91.94-.65.7-1.27,1.42-1.84,2.17a30.08,30.08,0,0,0-4.84,9.08l-.12.36s0,.11,0,.17c-.24.75-.44,1.5-.61,2.23-.06.25-.11.51-.17.76h0c-.06.29-.11.58-.17.86a35.2,35.2,0,0,0-.53,6.93,28.64,28.64,0,0,0,.39,4.13l-3.47.21-.91,0h-.19l-1.37.09-5,.3h0l-11.1.67-.1-1-.26-2.65a11.34,11.34,0,0,1,0-1.19,27.55,27.55,0,0,1,.7-5.28c.26-1.23.6-2.55,1-4,1-3.34,2-6,2-6,.35-.89.71-1.76,1.09-2.61,0-.07.07-.15.11-.23.45-1,.93-2,1.43-2.9q1.06-2,2.25-3.76A39,39,0,0,1,626.86,99a33.46,33.46,0,0,1,9.29-7.29,28.86,28.86,0,0,1,8.92-3,6,6,0,0,1,3,.27l13,4.57A.77.77,0,0,1,661.09,95Z"/><path class="cls-70" d="M626,106.24c.16,3.91,2.55,6.17,6.46,6s7.85-2.69,7.69-6.59-2.43-6.16-6.33-6S625.87,102.34,626,106.24Z"/><path class="cls-65" d="M663.14,108.37v31.42c-.5.31-1,.6-1.52.88s-.81.43-1.21.63c-.62.3-1.26.59-1.9.86l-.32.13-.57.23-.83.31c-.62.22-1.25.43-1.89.62l-.68.2c-.88.25-1.79.46-2.71.65a13.3,13.3,0,0,1-2.15.39,48.11,48.11,0,0,1-5.22.5l-.89,0h-2.91a73.75,73.75,0,0,1-13.64-1.59l-1-.22a56.92,56.92,0,0,1-11.31-3.79l-.26-.12c-.88-.41-1.73-.85-2.55-1.31V108.37a1,1,0,0,1,1.05-1.05H662.2A1.06,1.06,0,0,1,663.14,108.37Z"/><path class="cls-66" d="M616.06,110.19h-.88a.13.13,0,0,0-.14.13.13.13,0,0,0,.14.13h.88a.13.13,0,0,0,.13-.13A.13.13,0,0,0,616.06,110.19Zm1.75,0h-.88a.13.13,0,0,0-.13.13.13.13,0,0,0,.13.13h.88a.13.13,0,0,0,.14-.13A.13.13,0,0,0,617.81,110.19Zm1.85,0a.12.12,0,0,0-.09,0h-.88a.13.13,0,1,0,0,.26h.88a.13.13,0,0,0,.14-.13A.14.14,0,0,0,619.66,110.22Zm1.67,0h-.88a.13.13,0,0,0-.13.13.13.13,0,0,0,.13.13h.88a.13.13,0,0,0,.14-.13A.13.13,0,0,0,621.33,110.19Zm1.76,0h-.88a.13.13,0,0,0-.13.13.13.13,0,0,0,.13.13h.88a.12.12,0,0,0,.13-.13A.13.13,0,0,0,623.09,110.19Zm1.76,0H624a.13.13,0,0,0-.13.13.13.13,0,0,0,.13.13h.88a.13.13,0,0,0,.13-.13A.13.13,0,0,0,624.85,110.19Zm1.76,0h-.88a.13.13,0,0,0-.13.13.13.13,0,0,0,.13.13h.88a.13.13,0,0,0,.13-.13A.13.13,0,0,0,626.61,110.19Zm1.76,0h-.88a.14.14,0,0,0-.11.06.19.19,0,0,0,0,.07.13.13,0,0,0,.13.13h.88a.13.13,0,0,0,.13-.13A.13.13,0,0,0,628.37,110.19Zm1.76,0h-.88a.13.13,0,0,0-.13.13.13.13,0,0,0,.13.13h.88a.13.13,0,0,0,.13-.13A.13.13,0,0,0,630.13,110.19Zm1.76,0H631a.13.13,0,0,0-.13.13.13.13,0,0,0,.13.13h.88a.13.13,0,0,0,.13-.13A.13.13,0,0,0,631.89,110.19Zm1.76,0h-.88a.13.13,0,0,0-.13.13.13.13,0,0,0,.13.13h.88a.13.13,0,0,0,.13-.13A.13.13,0,0,0,633.65,110.19Zm1.76,0h-.88a.13.13,0,0,0-.13.13.12.12,0,0,0,.13.13h.88a.13.13,0,0,0,.13-.13A.13.13,0,0,0,635.41,110.19Zm1.76,0h-.88a.13.13,0,0,0-.14.13.13.13,0,0,0,.14.13h.88a.13.13,0,0,0,.13-.13A.13.13,0,0,0,637.17,110.19Zm1.76,0h-.88a.14.14,0,0,0-.14.12h0a.13.13,0,0,0,.14.13h.88a.13.13,0,0,0,.13-.13A.13.13,0,0,0,638.93,110.19Zm1.75,0h-.87a.13.13,0,0,0-.14.13.13.13,0,0,0,.14.13h.87a.13.13,0,0,0,.14-.13A.13.13,0,0,0,640.68,110.19Zm1.76,0h-.88a.13.13,0,0,0-.13.13.13.13,0,0,0,.13.13h.88a.13.13,0,0,0,.14-.13A.13.13,0,0,0,642.44,110.19Zm1.76,0h-.88a.13.13,0,0,0-.13.13.13.13,0,0,0,.13.13h.88a.12.12,0,0,0,.13-.13A.13.13,0,0,0,644.2,110.19Zm1.76,0h-.89a.13.13,0,0,0-.12.13.12.12,0,0,0,.12.13H646a.12.12,0,0,0,.13-.13A.13.13,0,0,0,646,110.19Zm1.76,0h-.88a.13.13,0,0,0-.13.13.13.13,0,0,0,.13.13h.88a.13.13,0,0,0,.13-.13A.13.13,0,0,0,647.72,110.19Zm1.76,0h-.88a.13.13,0,0,0-.13.13.13.13,0,0,0,.13.13h.88a.13.13,0,0,0,.13-.13A.13.13,0,0,0,649.48,110.19Zm1.76,0h-.88a.13.13,0,0,0-.13.13.13.13,0,0,0,.13.13h.88a.13.13,0,0,0,.13-.13A.13.13,0,0,0,651.24,110.19Zm1.76,0h-.88a.13.13,0,0,0-.13.13.13.13,0,0,0,.13.13H653a.13.13,0,0,0,.13-.13A.13.13,0,0,0,653,110.19Zm1.76,0h-.88a.13.13,0,0,0-.13.13.13.13,0,0,0,.13.13h.88a.13.13,0,0,0,.13-.13A.13.13,0,0,0,654.76,110.19Zm1.76,0h-.88a.13.13,0,0,0-.13.13.13.13,0,0,0,.13.13h.88a.13.13,0,0,0,.13-.13A.13.13,0,0,0,656.52,110.19Zm1.76,0h-.88a.13.13,0,0,0-.13.13.12.12,0,0,0,.13.13h.88a.13.13,0,0,0,.13-.13A.13.13,0,0,0,658.28,110.19Zm.87.42a.14.14,0,0,0-.19,0,.13.13,0,0,0,0,.19.81.81,0,0,1,.16.47v.29a.13.13,0,0,0,.13.13.13.13,0,0,0,.13-.13v-.29A1,1,0,0,0,659.15,110.61Zm-44.65,0a.14.14,0,0,0-.19,0,1.07,1.07,0,0,0-.2.62v.3a.13.13,0,0,0,.26,0v-.3a.75.75,0,0,1,.15-.46A.13.13,0,0,0,614.5,110.59Zm44.73,1.68a.13.13,0,0,0-.13.14v.88a.13.13,0,0,0,.13.13.13.13,0,0,0,.13-.13v-.88A.13.13,0,0,0,659.23,112.27Zm-45,0a.13.13,0,0,0-.13.13v.88a.13.13,0,0,0,.26,0v-.88A.13.13,0,0,0,614.24,112.29Zm45,1.74a.13.13,0,0,0-.13.13V115a.13.13,0,0,0,.13.14.13.13,0,0,0,.13-.14v-.88A.13.13,0,0,0,659.23,114Zm-45,0a.13.13,0,0,0-.13.13v.88a.13.13,0,0,0,.26,0v-.88A.13.13,0,0,0,614.24,114.05Zm45,1.74a.13.13,0,0,0-.13.13v.88a.13.13,0,0,0,.13.14.13.13,0,0,0,.13-.14v-.88A.13.13,0,0,0,659.23,115.79Zm-45,0a.13.13,0,0,0-.13.13v.88a.13.13,0,0,0,.26,0v-.88A.13.13,0,0,0,614.24,115.81Zm45,1.74h0a.12.12,0,0,0-.09.12v.88a.14.14,0,0,0,.09.13h0a.13.13,0,0,0,.13-.13v-.88A.13.13,0,0,0,659.23,117.55Zm-45,0a.13.13,0,0,0-.13.13v.88a.13.13,0,0,0,.26,0v-.88A.13.13,0,0,0,614.24,117.57Zm45,1.74h0a.12.12,0,0,0-.09.12v.88a.14.14,0,0,0,.09.13h0a.13.13,0,0,0,.13-.13v-.88A.13.13,0,0,0,659.23,119.31Zm-45,0a.13.13,0,0,0-.13.13v.88a.11.11,0,0,0,0,.08.12.12,0,0,0,.1,0,.13.13,0,0,0,.13-.13v-.88A.13.13,0,0,0,614.24,119.33Zm45,1.74a.13.13,0,0,0-.13.13v.88a.13.13,0,0,0,.13.13.13.13,0,0,0,.13-.13v-.88A.13.13,0,0,0,659.23,121.07Zm-45,0a.13.13,0,0,0-.13.14v.88a.13.13,0,0,0,.26,0v-.88A.13.13,0,0,0,614.24,121.08Zm45,1.75a.13.13,0,0,0-.13.13v.88a.13.13,0,0,0,.13.13.13.13,0,0,0,.13-.13V123A.13.13,0,0,0,659.23,122.83Zm-45,0a.13.13,0,0,0-.13.14v.88a.13.13,0,0,0,.26,0V123A.13.13,0,0,0,614.24,122.84Zm45,1.75a.13.13,0,0,0-.13.13v.88a.13.13,0,0,0,.13.13.13.13,0,0,0,.13-.13v-.88A.13.13,0,0,0,659.23,124.59Zm-44.94,0h0a.13.13,0,0,0-.13.14v.88a.07.07,0,0,0,0,.06.12.12,0,0,0,.11.07.13.13,0,0,0,.13-.13v-.88A.13.13,0,0,0,614.29,124.61Zm44.94,1.74a.13.13,0,0,0-.13.13v.88a.12.12,0,0,0,.08.12h.05a.13.13,0,0,0,.13-.13v-.88A.13.13,0,0,0,659.23,126.35Zm-45,0a.13.13,0,0,0-.13.13v.88a.13.13,0,1,0,.26,0v-.88A.13.13,0,0,0,614.24,126.36Zm45,1.75a.13.13,0,0,0-.13.13v.88a.13.13,0,0,0,.13.13.13.13,0,0,0,.13-.13v-.88A.13.13,0,0,0,659.23,128.11Zm-45,0a.13.13,0,0,0-.13.13v.88a.13.13,0,1,0,.26,0v-.88A.13.13,0,0,0,614.24,128.12ZM659.36,130a.2.2,0,0,0,0-.08l-.09,0a.12.12,0,0,0-.13.11v.9a.13.13,0,0,0,.13.13.13.13,0,0,0,.13-.13V130Zm-45.12-.1a.13.13,0,0,0-.13.13v.88a.13.13,0,1,0,.26,0V130A.13.13,0,0,0,614.24,129.88Zm45,1.74a.13.13,0,0,0-.13.14v.88a.13.13,0,0,0,.13.13.13.13,0,0,0,.13-.13v-.88A.13.13,0,0,0,659.23,131.62Zm-45,0-.07,0a.13.13,0,0,0-.06.11v.88a.13.13,0,0,0,.13.13h0a.14.14,0,0,0,.09-.13v-.88A.13.13,0,0,0,614.24,131.64Zm45,1.74a.13.13,0,0,0-.13.14v.88a.13.13,0,0,0,.13.13.13.13,0,0,0,.13-.13v-.88A.13.13,0,0,0,659.23,133.38Zm-44.88.08a.14.14,0,0,0-.11-.06.13.13,0,0,0-.13.13v.88a.13.13,0,0,0,.26,0v-.88A.14.14,0,0,0,614.35,133.46Zm44.88,1.68a.13.13,0,0,0-.13.14v.91h0a.14.14,0,0,0,.09.08h0a.13.13,0,0,0,.12-.09h0s0,0,0,0v-.87A.13.13,0,0,0,659.23,135.14Zm-45,0a.13.13,0,0,0-.13.13v.88a.13.13,0,0,0,.26,0v-.88A.13.13,0,0,0,614.24,135.16Zm45,1.74h0a.12.12,0,0,0-.09.12v.88a.13.13,0,0,0,.09.13h0a.13.13,0,0,0,.13-.14V137A.13.13,0,0,0,659.23,136.9Zm-45,0a.13.13,0,0,0-.13.13v.88a.13.13,0,0,0,.26,0v-.88A.13.13,0,0,0,614.24,136.92Zm45,1.74h0a.12.12,0,0,0-.09.12v.88a.13.13,0,0,0,.13.14.13.13,0,0,0,.13-.14v-.88A.13.13,0,0,0,659.23,138.66Zm-45,0a.13.13,0,0,0-.13.13v.69l.26.12v-.81A.13.13,0,0,0,614.24,138.68Zm45.12,1.84a.14.14,0,0,0-.13-.1.13.13,0,0,0-.13.13v.88a.12.12,0,0,0,.13.13.13.13,0,0,0,.13-.13v-.91Zm-32.72,2.86h-.88a.13.13,0,0,0-.08,0l1,.22a.12.12,0,0,0,.07-.11A.13.13,0,0,0,626.64,143.38Zm1.76,0h-.88a.13.13,0,0,0-.13.14.13.13,0,0,0,.13.13h.88a.13.13,0,0,0,.13-.13A.13.13,0,0,0,628.4,143.38Zm1.76,0h-.88a.13.13,0,0,0-.13.14.13.13,0,0,0,.13.13h.88a.13.13,0,0,0,.13-.13A.13.13,0,0,0,630.16,143.38Zm1.76,0H631a.13.13,0,0,0-.13.14.13.13,0,0,0,.13.13h.88a.13.13,0,0,0,.13-.13A.13.13,0,0,0,631.92,143.38Zm1.76,0h-.88a.13.13,0,0,0-.13.14.13.13,0,0,0,.13.13h.88a.13.13,0,0,0,.13-.13A.13.13,0,0,0,633.68,143.38Zm1.76,0h-.88a.13.13,0,0,0-.13.14.13.13,0,0,0,.13.13h.88a.13.13,0,0,0,.13-.13A.13.13,0,0,0,635.44,143.38Zm1.76,0h-.88a.13.13,0,0,0-.13.14.13.13,0,0,0,.13.13h.88a.13.13,0,0,0,.13-.13A.13.13,0,0,0,637.2,143.38Zm1.76,0h-.88a.14.14,0,0,0-.14.14.13.13,0,0,0,.14.13H639a.13.13,0,0,0,.13-.13A.13.13,0,0,0,639,143.38Zm1.76,0h-.88a.13.13,0,0,0-.09,0,.12.12,0,0,0,0,.1.13.13,0,0,0,.14.13h.88a.13.13,0,0,0,.13-.13A.13.13,0,0,0,640.72,143.38Zm1.75,0h-.87a.14.14,0,0,0-.14.14.13.13,0,0,0,.14.13h.87a.13.13,0,0,0,.14-.13A.14.14,0,0,0,642.47,143.38Zm1.76,0h-.88a.13.13,0,0,0-.13.14.13.13,0,0,0,.13.13h.88a.13.13,0,0,0,.14-.13A.14.14,0,0,0,644.23,143.38Zm1.76,0h-.88a.13.13,0,0,0-.13.14.13.13,0,0,0,.13.13H646a.13.13,0,0,0,.13-.13A.13.13,0,0,0,646,143.38Zm1.76,0h-.88a.13.13,0,0,0-.13.14.13.13,0,0,0,.13.13h.88a.13.13,0,0,0,.13-.13A.13.13,0,0,0,647.75,143.38Zm1.76,0h-.88a.13.13,0,0,0-.13.14.13.13,0,0,0,.13.13h.88a.13.13,0,0,0,.13-.13A.13.13,0,0,0,649.51,143.38Zm1.76,0h-.88a.13.13,0,0,0-.13.14.13.13,0,0,0,.13.13h.88a.13.13,0,0,0,.13-.13A.13.13,0,0,0,651.27,143.38Zm1.76,0h-.88a.13.13,0,0,0-.13.14.13.13,0,0,0,.13.13H653a.13.13,0,0,0,.13-.13A.13.13,0,0,0,653,143.38Zm1.76,0h-.88a.13.13,0,0,0-.13.13h0a.13.13,0,0,0,.13.13h.31l.68-.2A.12.12,0,0,0,654.79,143.38Z"/><rect class="cls-66" x="606.1" y="123.02" width="11.96" height="5.28" rx="1.89"/><path class="cls-73" d="M665.85,129.9V130a16.51,16.51,0,0,1-.37,3.06v0h0c-.08.35-.16.7-.26,1.05a16.61,16.61,0,0,1-.75,2.08h0a15.9,15.9,0,0,1-1.33,2.47c-.15.23-.3.46-.47.69-.33.45-.68.89-1,1.31-.4.22-.81.43-1.21.63-.62.3-1.26.59-1.9.86l-.32.13-.57.23-.83.31c-.62.22-1.25.43-1.89.62l-.68.2c-.88.25-1.79.46-2.71.65a13.3,13.3,0,0,1-2.15.39,48.11,48.11,0,0,1-5.22.5l-.89,0a17.46,17.46,0,0,1-3.15-1.57l-.35-.23a16.79,16.79,0,0,1-7-10.52c0-.07,0-.13,0-.19s-.07-.4-.1-.6a16.79,16.79,0,0,1,3.38-12.94,17.1,17.1,0,0,1,2.33-2.41c.37-.31.74-.6,1.13-.88s.65-.44,1-.65h0l.35-.21.27-.16a17.15,17.15,0,0,1,4.05-1.59,16.76,16.76,0,0,1,10.91,1c.27.12.53.24.8.38l.32.17c.27.15.54.3.8.46s.81.52,1.2.81l.26.2.47.38.32.27.53.48h0a15.58,15.58,0,0,1,1.24,1.32c.11.13.22.26.32.4.32.4.62.82.9,1.25l.07.11,0,.07.15.25c.13.21.25.41.36.62a17,17,0,0,1,1,2.22h0a17.77,17.77,0,0,1,.84,3.16A16,16,0,0,1,665.85,129.9Z"/><path class="cls-64" d="M664.34,133v0a17.68,17.68,0,0,1-.86,3.13h0c-.11.27-.22.54-.34.81a15.23,15.23,0,0,1-.9,1.75c-.1.18-.21.35-.32.53a.43.43,0,0,0,0,.07,18,18,0,0,1-1.47,1.94c-.62.3-1.26.59-1.9.86l-.32.13-.57.23-.83.31c-.62.22-1.25.43-1.89.62l-.68.2c-.88.25-1.79.46-2.71.65a13.3,13.3,0,0,1-2.15.39,48.11,48.11,0,0,1-5.22.5l-.89,0h-2.91a16.73,16.73,0,0,1-9-12.24,3.06,3.06,0,0,1,0-.32c0-.15,0-.31-.07-.46A16.65,16.65,0,0,1,638,116.65c.11-.09.23-.17.35-.25.34-.23.7-.46,1.07-.67l.28-.16.65-.34h0l.33-.16.3-.14a16.61,16.61,0,0,1,2-.74l.19-.06c.61-.17,1.23-.31,1.85-.42.33,0,.66-.1,1-.13a15.53,15.53,0,0,1,2.64-.07,16.16,16.16,0,0,1,4.14.75c.41.12.81.27,1.21.43l.33.13c.27.12.55.24.82.38a14.41,14.41,0,0,1,1.58.88,2.92,2.92,0,0,1,.32.21,16.37,16.37,0,0,1,1.51,1.12h0l.26.22.23.2.09.09.17.15c.31.3.62.61.91.94a17.11,17.11,0,0,1,1.19,1.48h0l0,.06c.35.5.68,1,1,1.58.21.39.41.79.59,1.19a.61.61,0,0,1,0,.12l.09.2h0c.12.28.23.56.33.83s.23.65.33,1,.24.9.34,1.35a17.78,17.78,0,0,1,.27,1.78c0,.43.07.87.08,1.3V130A17.38,17.38,0,0,1,664.34,133Z"/><path class="cls-59" d="M663.18,130v-.08c0-.24,0-.47,0-.7a14.75,14.75,0,0,0-.38-2.38c0-.19-.09-.37-.14-.55a16,16,0,0,0-1-2.61h0c-.1-.21-.21-.42-.32-.62a14.71,14.71,0,0,0-1.14-1.76l-.32-.42c-.08-.1-.16-.19-.23-.29l-.07-.07a1.63,1.63,0,0,0-.17-.2l-.17-.19-.09-.1-.23-.24a14.38,14.38,0,0,0-2.4-2l-.33-.22-.2-.12h0a15.38,15.38,0,0,0-1.55-.83l-.33-.15a17.54,17.54,0,0,0-1.88-.68,15.13,15.13,0,0,0-7.1-.34q-.74.15-1.47.36c-.43.13-.86.28-1.28.45h0a13.42,13.42,0,0,0-1.76.83c-.18.09-.36.2-.53.3-.48.29-.94.61-1.39.94s-.7.56-1,.87-.39.37-.58.56a15.37,15.37,0,0,0-4.28,12.38c0,.21,0,.41.09.62a1.11,1.11,0,0,0,0,.17,15.33,15.33,0,0,0,7,10.49l.44.27a15.6,15.6,0,0,0,3.36,1.41l.45.13a48.11,48.11,0,0,0,5.22-.5,14.28,14.28,0,0,1-5.42-.5,13.35,13.35,0,0,1-1.54-.54c-.21-.09-.41-.17-.6-.27a14.22,14.22,0,0,1-6.44-6,14,14,0,0,1-1.58-4.5s0-.06,0-.08c0-.24-.07-.47-.1-.7a14.46,14.46,0,0,1,3.61-11.27l.63-.65.38-.35a12.9,12.9,0,0,1,1.43-1.13,14,14,0,0,1,1.29-.81c.29-.16.59-.31.89-.45a15.53,15.53,0,0,1,1.71-.67c.49-.15,1-.28,1.47-.38a14.59,14.59,0,0,1,2.38-.28,14.17,14.17,0,0,1,4.46.57,14.61,14.61,0,0,1,2.1.78h0a12.69,12.69,0,0,1,2.12,1.22l.33.23a14.21,14.21,0,0,1,1.84,1.63l.07.07c.25.27.49.54.72.83l.26.34c.16.21.32.43.47.66s.22.33.32.5.23.38.34.58l.09.18h0c.08.16.17.32.24.49a13.62,13.62,0,0,1,1,2.67,14.59,14.59,0,0,1,.45,3.08V130A14.36,14.36,0,0,1,662,133v0c-.08.43-.19.86-.31,1.28v0a15.39,15.39,0,0,1-.65,1.8h0a14.39,14.39,0,0,1-1.69,2.89l-.17.21,0,.06,0,.06c-.19.23-.39.46-.59.68s-.21.23-.32.34a13.91,13.91,0,0,1-2.41,2l-.16.11c-.25.16-.51.31-.77.45a7.68,7.68,0,0,1-.81.41,2.1,2.1,0,0,1-.26.13,14.54,14.54,0,0,1-2.27.79c.92-.19,1.83-.4,2.71-.65l.68-.2c.64-.19,1.27-.4,1.89-.62l.42-.31c.34-.26.66-.53,1-.81l.32-.31c.2-.19.4-.39.59-.59l.26-.29a14.75,14.75,0,0,0,.93-1.16,15.29,15.29,0,0,0,1.63-2.87l.12-.29h0a13.35,13.35,0,0,0,.54-1.54c.06-.22.12-.43.17-.65s.15-.62.2-.94v0c0-.16,0-.31.07-.47.05-.34.09-.67.11-1A14,14,0,0,0,663.18,130Z"/><path class="cls-64" d="M607.1,125.59a1.25,1.25,0,1,1,1.24,1.25A1.25,1.25,0,0,1,607.1,125.59Z"/><path d="M36.57,51.59h5.75V76.4H36.57Z"/><path d="M46.25,74l2-4.32a14.63,14.63,0,0,0,8.19,2.59c3.4,0,4.78-1.14,4.78-2.66,0-4.64-14.42-1.46-14.42-10.67,0-4.22,3.4-7.73,10.45-7.73a16.71,16.71,0,0,1,8.62,2.2L64,57.72a14,14,0,0,0-6.87-1.95c-3.4,0-4.72,1.28-4.72,2.84,0,4.57,14.43,1.41,14.43,10.52,0,4.15-3.44,7.69-10.53,7.69C52.42,76.82,48.45,75.66,46.25,74Z"/><path d="M103.6,69.63c0,4.29-3.4,6.77-9.92,6.77H80.85V51.59H93c6.2,0,9.39,2.58,9.39,6.45a6,6,0,0,1-3.29,5.46A6.12,6.12,0,0,1,103.6,69.63Zm-17-13.72v5.85h5.71c2.8,0,4.32-1,4.32-2.94s-1.52-2.91-4.32-2.91ZM97.83,69c0-2.09-1.6-3.09-4.58-3.09h-6.7v6.14h6.7C96.23,72.08,97.83,71.15,97.83,69Z"/><path d="M124.31,71.08H112.79l-2.2,5.32H104.7l11.06-24.81h5.67l11.1,24.81h-6Zm-1.81-4.36-3.94-9.5-3.93,9.5Z"/><path d="M135.12,51.59h11.27c8.12,0,13.68,4.89,13.68,12.4S154.51,76.4,146.39,76.4H135.12Zm11,20.1c4.92,0,8.15-3,8.15-7.7S151,56.3,146.11,56.3h-5.25V71.69Z"/><path d="M172.87,64c0-7.48,5.74-12.83,13.47-12.83a12.8,12.8,0,0,1,10.21,4.4L192.86,59a8,8,0,0,0-6.24-2.91A7.61,7.61,0,0,0,178.68,64a7.61,7.61,0,0,0,7.94,7.94A7.9,7.9,0,0,0,192.86,69l3.69,3.4c-2.34,2.88-5.92,4.43-10.25,4.43C178.61,76.82,172.87,71.47,172.87,64Z"/><path d="M216.22,76.4l-4.78-6.91h-5.28V76.4h-5.75V51.59h10.74c6.63,0,10.78,3.44,10.78,9a8.06,8.06,0,0,1-5.11,7.83l5.57,8Zm-5.39-20.13h-4.67v8.65h4.67c3.51,0,5.29-1.64,5.29-4.33S214.34,56.27,210.83,56.27Z"/><path d="M245.68,71.79V76.4H226.47V51.59h18.75V56.2H232.17v5.38h11.52v4.47H232.17v5.74Z"/><path d="M250.25,51.59h11.27c8.12,0,13.69,4.89,13.69,12.4S269.64,76.4,261.52,76.4H250.25Zm11,20.1c4.93,0,8.15-3,8.15-7.7s-3.22-7.69-8.15-7.69H256V71.69Z"/><path d="M279.53,51.59h5.74V76.4h-5.74Z"/><path d="M296.3,56.27h-7.94V51.59H310v4.68H302V76.4H296.3Z"/><path d="M321.15,74l2-4.32a14.62,14.62,0,0,0,8.18,2.59c3.41,0,4.79-1.14,4.79-2.66,0-4.64-14.43-1.46-14.43-10.67,0-4.22,3.41-7.73,10.46-7.73a16.65,16.65,0,0,1,8.61,2.2l-1.77,4.36a14,14,0,0,0-6.88-1.95c-3.4,0-4.71,1.28-4.71,2.84,0,4.57,14.43,1.41,14.43,10.52,0,4.15-3.44,7.69-10.53,7.69C327.31,76.82,323.34,75.66,321.15,74Z"/><path d="M344.15,64c0-7.48,5.74-12.83,13.47-12.83a12.8,12.8,0,0,1,10.21,4.4L364.14,59a8,8,0,0,0-6.23-2.91A7.62,7.62,0,0,0,350,64a7.62,7.62,0,0,0,8,7.94A7.88,7.88,0,0,0,364.14,69l3.69,3.4c-2.34,2.88-5.92,4.43-10.24,4.43C349.89,76.82,344.15,71.47,344.15,64Z"/><path d="M369.6,64c0-7.37,5.75-12.83,13.58-12.83S396.75,56.58,396.75,64,391,76.82,383.18,76.82,369.6,71.37,369.6,64Zm21.34,0a7.76,7.76,0,1,0-15.52,0,7.76,7.76,0,1,0,15.52,0Z"/><path d="M416.89,76.4l-4.79-6.91h-5.28V76.4h-5.74V51.59h10.74c6.63,0,10.78,3.44,10.78,9a8.06,8.06,0,0,1-5.11,7.83l5.57,8ZM411.5,56.27h-4.68v8.65h4.68c3.51,0,5.28-1.64,5.28-4.33S415,56.27,411.5,56.27Z"/><path d="M446.35,71.79V76.4H427.14V51.59h18.75V56.2H432.84v5.38h11.52v4.47H432.84v5.74Z"/><path d="M38.89,114.22l2-4.33A14.55,14.55,0,0,0,49,112.48c3.4,0,4.79-1.14,4.79-2.66,0-4.64-14.43-1.45-14.43-10.67,0-4.22,3.4-7.73,10.46-7.73a16.65,16.65,0,0,1,8.61,2.2L56.69,98a14.05,14.05,0,0,0-6.88-2c-3.4,0-4.71,1.28-4.71,2.84,0,4.57,14.42,1.42,14.42,10.52,0,4.15-3.44,7.7-10.52,7.7C45.06,117.09,41.09,115.92,38.89,114.22Z"/><path d="M68.24,96.53H60.3V91.85H81.93v4.68H74v20.13H68.24Z"/><path d="M83.1,104.25c0-7.37,5.74-12.83,13.57-12.83s13.58,5.43,13.58,12.83-5.78,12.84-13.58,12.84S83.1,111.63,83.1,104.25Zm21.34,0a7.77,7.77,0,1,0-7.77,7.94A7.58,7.58,0,0,0,104.44,104.25Z"/><path d="M136.09,100.85c0,5.53-4.15,9-10.77,9h-5v6.84h-5.74V91.85h10.74C131.94,91.85,136.09,95.29,136.09,100.85Zm-5.81,0c0-2.73-1.78-4.32-5.28-4.32h-4.68v8.61H125C128.5,105.14,130.28,103.55,130.28,100.85Z"/><path d="M161.68,100.85c0,5.53-4.14,9-10.77,9h-5v6.84h-5.74V91.85h10.74C157.54,91.85,161.68,95.29,161.68,100.85Zm-5.81,0c0-2.73-1.77-4.32-5.28-4.32h-4.68v8.61h4.68C154.1,105.14,155.87,103.55,155.87,100.85Z"/><path d="M165.76,91.85h5.74v24.81h-5.74Z"/><path d="M200.15,91.85v24.81h-4.72L183.06,101.6v15.06h-5.67V91.85h4.75l12.33,15.06V91.85Z"/><path d="M222.8,103.87H228v10.06a17.08,17.08,0,0,1-10,3.16c-7.8,0-13.54-5.36-13.54-12.84s5.74-12.83,13.65-12.83c4.36,0,8,1.49,10.38,4.29l-3.68,3.41a8.39,8.39,0,0,0-6.42-2.81c-4.82,0-8.12,3.23-8.12,7.94a7.66,7.66,0,0,0,8.05,7.94,9.14,9.14,0,0,0,4.47-1.06Z"/><path d="M255.3,107.87v8.79h-5.74V107.8l-9.6-16h6.09l6.63,11,6.63-11h5.63Z"/><path d="M264.73,104.25c0-7.37,5.75-12.83,13.58-12.83s13.57,5.43,13.57,12.83-5.77,12.84-13.57,12.84S264.73,111.63,264.73,104.25Zm21.34,0a7.76,7.76,0,1,0-7.76,7.94A7.57,7.57,0,0,0,286.07,104.25Z"/><path d="M296,105.74V91.85h5.74v13.68c0,4.72,2.06,6.66,5.53,6.66s5.53-1.94,5.53-6.66V91.85h5.67v13.89c0,7.31-4.18,11.35-11.24,11.35S296,113.05,296,105.74Z"/><path d="M339.92,96.46V103H351.4v4.61H339.92v9h-5.75V91.85h18.76v4.61Z"/><path d="M372.63,116.66l-4.78-6.91h-5.28v6.91h-5.74V91.85h10.74c6.62,0,10.77,3.44,10.77,9a8.09,8.09,0,0,1-5.1,7.84l5.56,8Zm-5.38-20.13h-4.68v8.65h4.68c3.51,0,5.28-1.63,5.28-4.33S370.76,96.53,367.25,96.53Z"/><path d="M381.32,104.25c0-7.37,5.74-12.83,13.58-12.83s13.57,5.43,13.57,12.83-5.78,12.84-13.57,12.84S381.32,111.63,381.32,104.25Zm21.34,0a7.77,7.77,0,1,0-7.76,7.94A7.57,7.57,0,0,0,402.66,104.25Z"/><path d="M435.38,116.66l0-14.89L428,114h-2.59l-7.26-12v14.57H412.8V91.85h4.75l9.28,15.42L436,91.85h4.71l.07,24.81Z"/><rect class="cls-74" x="37.9" y="142.34" width="408.28" height="48.9"/><path class="cls-6" d="M67.58,159.67H60.25v-5.36H81.64v5.36h-7.3V178.2H67.58Z"/><path class="cls-6" d="M99,173.56H88.88L87,178.2H80.11l10.54-23.89h6.66l10.57,23.89h-7Zm-2-5-3.07-7.64-3.07,7.64Z"/><path class="cls-6" d="M119,169.53l-2.53,2.69v6H109.8V154.31h6.68v9.93l9.25-9.93h7.44l-9.76,10.58,10.27,13.31h-7.85Z"/><path class="cls-6" d="M135.46,154.31h6.75V178.2h-6.75Z"/><path class="cls-6" d="M169.75,154.31V178.2h-5.56l-10.55-12.73V178.2H147V154.31h5.56L163.13,167V154.31Z"/><path class="cls-6" d="M190.53,165.74h6v9.9a17.79,17.79,0,0,1-10,3c-7.61,0-13.17-5.15-13.17-12.42s5.56-12.42,13.31-12.42c4.47,0,8.08,1.54,10.44,4.37l-4.3,3.89a7.45,7.45,0,0,0-5.8-2.66,6.83,6.83,0,0,0-.07,13.65,8.55,8.55,0,0,0,3.65-.79Z"/><path class="cls-6" d="M215.82,159.67h-7.34v-5.36h21.39v5.36h-7.3V178.2h-6.75Z"/><path class="cls-6" d="M255.12,154.31V178.2h-6.75v-9.32h-9.21v9.32H232.4V154.31h6.76v9h9.21v-9Z"/><path class="cls-6" d="M279.08,173v5.22H259.9V154.31h18.73v5.22h-12v4H277.2v5.05H266.59V173Z"/><path class="cls-6" d="M292.76,154.31h6.76v18.53h11.39v5.36H292.76Z"/><path class="cls-6" d="M312,166.25c0-7.16,5.63-12.42,13.27-12.42s13.27,5.26,13.27,12.42-5.63,12.42-13.27,12.42S312,173.42,312,166.25Zm19.72,0c0-4.12-2.84-6.82-6.45-6.82s-6.45,2.7-6.45,6.82,2.83,6.83,6.45,6.83S331.7,170.38,331.7,166.25Z"/><path class="cls-6" d="M357.73,173.56h-10.1l-1.87,4.64h-6.89l10.54-23.89h6.65l10.58,23.89h-7Zm-2-5-3.07-7.64-3.07,7.64Z"/><path class="cls-6" d="M391.27,154.31V178.2h-5.56l-10.54-12.73V178.2h-6.62V154.31h5.56L384.66,167V154.31Z"/><path class="cls-6" d="M415.71,161.34c0-1.36-1.26-2.18-3-2.18a4.81,4.81,0,0,0-4.27,2.45l-5.08-2.73c1.81-3,5.11-5,10.13-5,5.25,0,9,2.26,9,6.42,0,5.32-5.6,6.11-5.6,9.25h-6.07C410.83,165,415.71,163.9,415.71,161.34ZM410,174.92a3.89,3.89,0,0,1,7.74,0,3.88,3.88,0,0,1-7.74,0Z"/><circle class="cls-75" cx="242.6" cy="333.49" r="23.26"/><path class="cls-76" d="M215.45,332.67a27.15,27.15,0,1,1,53.78,5.24h61a87.95,87.95,0,0,0-175.31,0h61A27.38,27.38,0,0,1,215.45,332.67Z"/><path class="cls-77" d="M149.67,259.31a120.81,120.81,0,0,0-28.92,78.6h25.53a95.37,95.37,0,0,1,21.46-60.4Z"/><path class="cls-6" d="M136.92,311c1.76.41,2.55,2,2.05,4.11l-.38,1.59,2.18.52-.43,1.83-7.91-1.87.81-3.43C133.73,311.68,135.14,310.62,136.92,311Zm-.44,1.85c-.87-.21-1.51.24-1.78,1.36l-.35,1.49,2.75.65.35-1.49C137.72,313.78,137.34,313.09,136.48,312.89Z"/><path class="cls-6" d="M138.27,310.22a4.45,4.45,0,1,1,5.36-3A4.2,4.2,0,0,1,138.27,310.22Zm2.11-6.67a2.55,2.55,0,1,0,1.72,3.22A2.49,2.49,0,0,0,140.38,303.55Z"/><path class="cls-6" d="M141.32,300.74a4.45,4.45,0,1,1,5.57-2.54A4.22,4.22,0,0,1,141.32,300.74Zm2.64-6.48a2.54,2.54,0,1,0,1.45,3.34A2.49,2.49,0,0,0,144,294.26Z"/><path class="cls-6" d="M151.32,288.23l-2.73.4,0,.08-.73,1.47,2,1-.84,1.69-7.28-3.63,1.56-3.15c1-2,2.59-2.66,4.22-1.85a2.63,2.63,0,0,1,1.55,2.64l3.16-.47Zm-6.7-1.35-.68,1.37,2.54,1.26.68-1.37c.51-1,.29-1.79-.5-2.18S145.13,285.85,144.62,286.88Z"/><path class="cls-78" d="M218.74,218.86a121.11,121.11,0,0,0-67.88,39.08l18.19,18a95.65,95.65,0,0,1,58.09-32.62Z"/><path class="cls-79" d="M325.11,249.54a121.4,121.4,0,0,0-104.57-31L229.2,243a97,97,0,0,1,12.84-.86,95.43,95.43,0,0,1,65.24,25.67Z"/><path class="cls-80" d="M326.42,250.79l-17.66,18.45a95.47,95.47,0,0,1,29,68.67h25.54A120.93,120.93,0,0,0,326.42,250.79Z"/><path class="cls-6" d="M178.57,249.24l1.1,1.84,3.23-1.92.77,1.3-3.23,1.92,1.51,2.55-1.62,1-4.15-7,5.28-3.14.77,1.3Z"/><path class="cls-6" d="M190.29,248.37l-3.36,1.72.15,1.87-1.71.88-.48-8.88,1.66-.85,6.93,5.58-1.76.9Zm-1.18-1-2.56-2.19.27,3.36Z"/><path class="cls-6" d="M190.89,241l1.72-.77,3.32,7.42-1.71.77Z"/><path class="cls-6" d="M202.42,245.06l-2.29-1.55-.08,0-1.53.59.82,2.11-1.76.68-2.94-7.58,3.28-1.28c2-.78,3.71-.22,4.37,1.48a2.64,2.64,0,0,1-.64,3l2.65,1.78Zm-4-5.52-1.43.56,1,2.64,1.43-.55c1.07-.42,1.42-1.13,1.1-1.95S199.46,239.13,198.38,239.54Z"/><path class="cls-6" d="M266.28,232.47l1.65.5-1,3.16a5.64,5.64,0,0,1-3.45,0,4.21,4.21,0,1,1,2.51-8,4.35,4.35,0,0,1,2.84,2.34l-1.48.71a2.78,2.78,0,0,0-1.75-1.49,2.6,2.6,0,1,0-1.55,5,3,3,0,0,0,1.5.1Z"/><path class="cls-6" d="M269.2,233.53a4.45,4.45,0,1,1,2.6,5.54A4.21,4.21,0,0,1,269.2,233.53Zm6.51,2.55a2.54,2.54,0,1,0-3.32,1.5A2.49,2.49,0,0,0,275.71,236.08Z"/><path class="cls-6" d="M278.47,237.21a4.45,4.45,0,1,1,2.15,5.73A4.21,4.21,0,0,1,278.47,237.21Zm6.28,3.07a2.55,2.55,0,1,0-3.43,1.22A2.49,2.49,0,0,0,284.75,240.28Z"/><path class="cls-6" d="M289.9,238.38l3.18,1.88c2.29,1.35,3.05,3.66,1.8,5.78s-3.64,2.58-5.93,1.22l-3.18-1.87Zm-.25,7.51a2.53,2.53,0,1,0,2.56-4.35l-1.48-.87L288.17,245Z"/><path class="cls-6" d="M324.62,271.75l-1.21.9-3.76-5,6.53-4.85,3.66,4.92-1.21.91-2.55-3.43-1.41,1.05,2.25,3-1.18.87-2.25-3L322,268.2Z"/><path class="cls-6" d="M326.93,278l1.3-3.18-3.41-.08-1.18-1.82,5.11.28,1.8-4.57,1.16,1.79-1.2,3,3.22.1,1.1,1.71L330,275l-1.88,4.83Z"/><path class="cls-6" d="M331.68,277.9a4.49,4.49,0,0,1,6.2,5.43l-1.57-.51a2.64,2.64,0,0,0-.16-2.25,2.6,2.6,0,1,0-4.54,2.53,2.59,2.59,0,0,0,1.84,1.32l-.39,1.59a4.47,4.47,0,0,1-1.38-8.11Z"/><path class="cls-6" d="M336.47,292.72l-1.36.65-2.7-5.69,7.35-3.49,2.63,5.56-1.36.64-1.84-3.86-1.59.76,1.62,3.41-1.33.63-1.62-3.42-1.7.81Z"/><path class="cls-6" d="M343.18,291.61l.7,1.75-6.12,2.46,1.52,3.78-1.43.57-2.21-5.53Z"/><path class="cls-6" d="M345.87,298.48l.6,1.78-6.25,2.11,1.3,3.86-1.45.49-1.9-5.64Z"/><path class="cls-6" d="M343.42,313.28l-1.45.4-1.65-6.08,7.85-2.13,1.61,5.93-1.46.4-1.12-4.13-1.7.46,1,3.65-1.41.38-1-3.64-1.81.49Z"/><path class="cls-6" d="M351.71,320.74l-8,1.57-.3-1.51,4.06-4.94-4.84,1-.36-1.82,8-1.58.3,1.53-4.05,4.92,4.84-1Z"/><path class="cls-6" d="M350.74,324.93l-.33-2.58,1.52-.19.9,7-1.52.2L351,326.8l-6.54.84-.24-1.87Z"/><polygon class="cls-81" points="240.74 337.76 137.86 303.03 138.85 301.28 244.4 333.05 240.74 337.76"/><polygon class="cls-82" points="245.22 327.09 138.47 298.59 138.85 301.28 244.4 333.05 245.22 327.09"/><circle class="cls-76" cx="242.6" cy="333.49" r="15.32"/><rect class="cls-83" y="354.17" width="800" height="145.83"/><path d="M81.2,421.55l0-12.3-6,10.13H73l-6-9.87v12H62.54v-20.5h3.93l7.67,12.74,7.55-12.74h3.9l.06,20.5Z"/><path d="M104,417.16H94.49l-1.82,4.39H87.81L97,401.05h4.68l9.16,20.5h-5Zm-1.49-3.61-3.25-7.84L96,413.55Z"/><path d="M112.93,401.05h4.74v20.5h-4.74Z"/><path d="M141.33,401.05v20.5h-3.89L127.22,409.1v12.45h-4.69v-20.5h3.93l10.19,12.45V401.05Z"/><path d="M150.43,404.92h-6.56v-3.87h17.87v3.87h-6.56v16.63h-4.75Z"/><path d="M176.75,417.16h-9.51l-1.82,4.39h-4.86l9.14-20.5h4.68l9.17,20.5h-5Zm-1.49-3.61L172,405.71l-3.25,7.84Z"/><path d="M185.68,401.05h4.75v20.5h-4.75Z"/><path d="M214.08,401.05v20.5h-3.89L200,409.1v12.45h-4.68v-20.5h3.92L209.4,413.5V401.05Z"/><path d="M237.06,414.29v7.26h-4.74v-7.32l-7.93-13.18h5l5.48,9.11,5.47-9.11H245Z"/><path d="M244.85,411.3c0-6.09,4.74-10.6,11.21-10.6s11.22,4.48,11.22,10.6-4.77,10.6-11.22,10.6S244.85,417.39,244.85,411.3Zm17.63,0a6.42,6.42,0,1,0-6.42,6.56A6.26,6.26,0,0,0,262.48,411.3Z"/><path d="M270.67,412.53V401.05h4.75v11.3c0,3.9,1.69,5.51,4.56,5.51s4.57-1.61,4.57-5.51v-11.3h4.69v11.48c0,6-3.46,9.37-9.28,9.37S270.67,418.56,270.67,412.53Z"/><path d="M307,421.55l-4-5.71h-4.37v5.71h-4.74v-20.5h8.87c5.48,0,8.9,2.84,8.9,7.44a6.67,6.67,0,0,1-4.21,6.47l4.59,6.59Zm-4.45-16.63h-3.87v7.14h3.87c2.9,0,4.36-1.35,4.36-3.57S305.43,404.92,302.53,404.92Z"/><path d="M61.26,446.43c0-6.18,4.74-10.6,11.12-10.6a10.6,10.6,0,0,1,8.44,3.63l-3,2.82a6.57,6.57,0,0,0-5.15-2.41,6.56,6.56,0,0,0,0,13.12,6.53,6.53,0,0,0,5.15-2.43l3,2.81A10.52,10.52,0,0,1,72.35,457C66,457,61.26,452.61,61.26,446.43Z"/><path d="M97.06,456.68l-4-5.71H88.75v5.71H84v-20.5h8.88c5.47,0,8.9,2.84,8.9,7.44a6.65,6.65,0,0,1-4.22,6.47l4.6,6.59Zm-4.45-16.63H88.75v7.14h3.86c2.9,0,4.37-1.34,4.37-3.57S95.51,440.05,92.61,440.05Z"/><path d="M121.39,452.88v3.8H105.52v-20.5H121V440H110.24v4.45h9.51v3.69h-9.51v4.75Z"/><path d="M125.17,436.18h9.31c6.7,0,11.3,4.05,11.3,10.25s-4.6,10.25-11.3,10.25h-9.31Zm9.07,16.61c4.07,0,6.74-2.43,6.74-6.36s-2.67-6.35-6.74-6.35h-4.33v12.71Z"/><path d="M149.35,436.18h4.74v20.5h-4.74Z"/><path d="M163.2,440.05h-6.56v-3.87H174.5v3.87h-6.56v16.63H163.2Z"/><path d="M183.72,454.66l1.61-3.57a12,12,0,0,0,6.76,2.14c2.82,0,4-.94,4-2.2,0-3.84-11.92-1.2-11.92-8.81,0-3.49,2.81-6.39,8.64-6.39a13.75,13.75,0,0,1,7.11,1.82l-1.46,3.6a11.62,11.62,0,0,0-5.68-1.61c-2.81,0-3.9,1.05-3.9,2.34,0,3.78,11.92,1.17,11.92,8.7,0,3.42-2.84,6.35-8.7,6.35A14.57,14.57,0,0,1,183.72,454.66Z"/><path d="M202.72,446.43c0-6.18,4.74-10.6,11.13-10.6a10.58,10.58,0,0,1,8.43,3.63l-3,2.82a6.59,6.59,0,0,0-5.16-2.41,6.56,6.56,0,0,0,0,13.12,6.55,6.55,0,0,0,5.16-2.43l3,2.81a10.5,10.5,0,0,1-8.46,3.66C207.46,457,202.72,452.61,202.72,446.43Z"/><path d="M223.74,446.43c0-6.09,4.74-10.6,11.22-10.6s11.21,4.48,11.21,10.6S241.4,457,235,457,223.74,452.52,223.74,446.43Zm17.63,0A6.42,6.42,0,1,0,235,453,6.25,6.25,0,0,0,241.37,446.43Z"/><path d="M262.8,456.68l-4-5.71h-4.36v5.71h-4.74v-20.5h8.87c5.48,0,8.9,2.84,8.9,7.44a6.65,6.65,0,0,1-4.22,6.47l4.6,6.59Zm-4.45-16.63h-3.87v7.14h3.87c2.9,0,4.36-1.34,4.36-3.57S261.25,440.05,258.35,440.05Z"/><path d="M287.13,452.88v3.8H271.26v-20.5h15.49V440H276v4.45h9.52v3.69H276v4.75Z"/><path d="M330.17,436.18l-6.71,20.5h-5.09l-4.51-13.88-4.66,13.88h-5.07l-6.73-20.5h4.92L307,450.59l4.83-14.41h4.39l4.68,14.53,4.78-14.53Z"/><path d="M332.8,436.18h4.74v20.5H332.8Z"/><path d="M346.64,440.05h-6.55v-3.87H358v3.87h-6.56v16.63h-4.75Z"/><path d="M379.29,436.18v20.5h-4.74v-8.4h-9.31v8.4h-4.75v-20.5h4.75v8.09h9.31v-8.09Z"/><path d="M392.26,447.66V436.18H397v11.31c0,3.89,1.7,5.5,4.57,5.5s4.57-1.61,4.57-5.5V436.18h4.68v11.48c0,6-3.45,9.37-9.28,9.37S392.26,453.7,392.26,447.66Z"/><path d="M413.89,454.66l1.61-3.57a12.08,12.08,0,0,0,6.77,2.14c2.81,0,4-.94,4-2.2,0-3.84-11.92-1.2-11.92-8.81,0-3.49,2.81-6.39,8.64-6.39a13.78,13.78,0,0,1,7.12,1.82l-1.47,3.6a11.59,11.59,0,0,0-5.68-1.61c-2.81,0-3.89,1.05-3.89,2.34,0,3.78,11.91,1.17,11.91,8.7,0,3.42-2.84,6.35-8.69,6.35A14.6,14.6,0,0,1,413.89,454.66Z"/><rect class="cls-74" x="492.33" y="403.57" width="232.04" height="54"/><path class="cls-6" d="M546.12,433.9H535.68l-2.16,4.91h-2.9l8.9-19.65h2.78l8.93,19.65h-3Zm-1-2.25L540.9,422l-4.24,9.63Z"/><path class="cls-6" d="M569.18,431.37a7.23,7.23,0,0,1-7.53,7.61,6.35,6.35,0,0,1-5.19-2.42v7.7h-2.7V423.93h2.59v2.36a6.31,6.31,0,0,1,5.3-2.5A7.23,7.23,0,0,1,569.18,431.37Zm-2.73,0a5,5,0,1,0-5,5.25A4.91,4.91,0,0,0,566.45,431.37Z"/><path class="cls-6" d="M588.33,431.37a7.23,7.23,0,0,1-7.52,7.61,6.37,6.37,0,0,1-5.2-2.42v7.7h-2.69V423.93h2.58v2.36a6.34,6.34,0,0,1,5.31-2.5A7.22,7.22,0,0,1,588.33,431.37Zm-2.72,0a5,5,0,1,0-5,5.25A4.91,4.91,0,0,0,585.61,431.37Z"/><path class="cls-6" d="M592.07,418h2.69v20.83h-2.69Z"/><path class="cls-6" d="M613.07,423.93l-7.21,16.37c-1.32,3.14-3,4.12-5.31,4.12a5.59,5.59,0,0,1-3.82-1.37l1.15-2a3.82,3.82,0,0,0,2.67,1.09c1.29,0,2.11-.59,2.84-2.3l.47-1-6.57-14.85h2.81l5.19,11.9,5.14-11.9Z"/><path class="cls-6" d="M640.45,419.16v19.65h-2.3l-11.79-14.66v14.66h-2.81V419.16h2.3l11.79,14.65V419.16Z"/><path class="cls-6" d="M644.58,431.37a7.74,7.74,0,1,1,7.75,7.61A7.4,7.4,0,0,1,644.58,431.37Zm12.75,0a5,5,0,1,0-5,5.25A4.88,4.88,0,0,0,657.33,431.37Z"/><path class="cls-6" d="M685.89,423.93l-5.56,14.88h-2.58l-4.3-11.29-4.35,11.29h-2.58L661,423.93h2.55l4.33,11.85,4.49-11.85h2.27l4.41,11.9,4.44-11.9Z"/></g></g></svg>